<svg id="Livello_1" data-name="Livello 1" xmlns="http://www.w3.org/2000/svg" viewBox="0 0 404.78583 460.59215">
  <defs>
    <style>
      .cls-1 {
        fill: #ed6d54;
      }
    </style>
  </defs>
  <title>Senza titolo-1</title>
  <path class="cls-1" d="M544.24718,188.14472c-22.2551-25.97664-49.83188-48.71966-77.22415-66.31985C398.107,77.55031,326.47757,61.11559,292.848,81.84344c-16.2849,10.03846-28.58841,29.53709-37.19269,59.44267-25.21652,28.31217-37.7527,88.29817-39.13954,185.88-1.43767,101.12322,13.6648,164.8574,44.88756,189.42973,14.39911,11.33277,35.76335,16.95518,61.21146,16.95518,29.13066,0,63.61314-7.36968,99.111-21.9646,2.62951-1.08128,5.198-2.18812,7.74625-3.30249a319.22611,319.22611,0,0,0,45.44622-14.869c98.37643-40.45537,139.61533-104.607,145.40289-151.15415C627.42188,285.194,590.94414,230.03911,544.24718,188.14472ZM317.85312,494.28081a66.79827,66.79827,0,0,1-13.9214-15.53176c12.07515,4.4911,26.48367,6.73463,42.5289,6.73463,29.1304,0,63.61288-7.3643,99.10806-21.95922,49.89939-20.5202,85.07556-47.13808,108.406-74.4623-15.84566,38.80009-54.79288,82.97513-126.57,114.36869C380.779,514.75259,340.21177,511.87482,317.85312,494.28081Zm125.70577-35.63693c-57.72472,23.72936-112.27874,28.04454-144.29714,12.3409-17.18435-31.89278-25.35611-86.07-24.2786-161.91292,1.3578-95.48575,13.86331-155.5944,38.112-182.72684,35.20146,1.783,81.66468,18.70837,127.23248,47.98428,64.7493,41.59959,130.68935,112.165,121.57267,185.44861a106.09733,106.09733,0,0,1-2.89149,14.47038C536.70777,404.82067,499.64635,435.58079,443.55889,458.64388ZM271.76969,134.39951c8.86734-5.46479,20.681-8.0553,34.44994-8.16343-23.462,29.47845-35.1759,88.62444-36.51379,182.75858-1.01135,71.12,6.19425,123.6602,21.39706,157.17464-.85884-.59982-1.78278-1.14584-2.59428-1.78439-29.85985-23.50018-44.28209-85.812-42.87-185.20626.82548-58.04614,5.772-103.01413,14.968-135.45884A53.37506,53.37506,0,0,1,271.76969,134.39951Zm171.40779,35.49007c-44.26515-28.44074-89.59383-45.316-125.3093-48.31217a50.67773,50.67773,0,0,1,7.09156-5.347c9.05482-5.58126,21.09608-8.26376,35.24288-8.26376,35.81472,0,85.093,17.21044,133.31483,48.19381a375.01214,375.01214,0,0,1,47.0547,35.74856c30.41449,35.59174,50.46989,77.233,45.17375,119.80658-1.92694,15.48765-7.95147,33.00687-18.93646,50.939.10893-.74264.23535-1.49335.3268-2.22739C576.55714,284.71364,509.27731,212.35743,443.17748,169.88958Zm-147.562-83.55235c9.05482-5.58126,21.09608-8.26376,35.24261-8.26376,35.81472,0,85.09063,17.21044,133.3151,48.19112a375.68136,375.68136,0,0,1,45.70794,34.56318q-6.73866-4.74756-13.50852-9.10727c-68.91359-44.27671-140.54546-60.71412-174.18039-39.98385a59.09054,59.09054,0,0,0-11.48852,9.35607c-16.80778-.5358-31.13426,2.29813-41.70126,8.81274a56.04923,56.04923,0,0,0-5.24611,3.70461C271.71644,110.229,282.30765,94.53966,295.61551,86.33723Zm-30.95,426.11508c-29.85959-23.5053-44.28452-85.82224-42.87239-185.21407,1.20447-84.70814,11.187-141.56245,30.35423-172.26743-7.193,31.46-11.0525,72.5254-11.786,124.13064-1.43768,101.12592,13.6648,164.8601,44.88514,189.427A63.69728,63.69728,0,0,0,295.5523,475.006c5.493,9.8569,11.81425,17.7336,19.03841,23.41841,14.40179,11.33789,35.76335,16.95519,61.21414,16.95519a200.87221,200.87221,0,0,0,25.44973-1.76153C343.59253,533.47226,291.264,533.38,264.6655,512.45231ZM615.085,341.61153c-5.60708,45.068-45.90267,107.33334-142.17652,146.92314-4.93921,2.03131-9.84265,3.87138-14.7243,5.61865,63.04534-34.78965,95.15356-79.92386,105.66354-117.64859,16.18376-22.4431,24.72887-44.80874,27.13405-64.13953,4.12448-33.147-6.453-65.64983-25.195-95.28375C598.49215,253.68508,620.61732,297.14115,615.085,341.61153Z" transform="translate(-216.42204 -72.95892)"/>
</svg>
