<svg width="571.75671" height="700.46347" xmlns="http://www.w3.org/2000/svg" data-name="Layer 1">
 <g>
  <title>Layer 1</title>
  <path id="svg_11" fill="#6c63ff" d="m384.63086,80.50674c0.345,-44.18146 -28.476,-80.2248 -64.37336,-80.5051s-65.27769,35.30857 -65.62268,79.49c-0.31277,40.05573 23.34783,73.42112 54.52046,79.51237l-2.15206,12.89936l23.82252,0.186l-1.95038,-12.93135c31.264,-5.60371 55.44272,-38.59555 55.7555,-78.65128z"/>
  <path id="svg_12" fill="#fff" d="m276.47018,100.66281l-8.99973,-0.07027a146.49361,146.49361 0 0 1 0.39823,-50.99845l8.99972,0.07028q-6.04888,26.40374 -0.39822,50.99844z"/>
  <rect id="svg_13" transform="rotate(0.44739 -312.058 -104.704)" fill="#3f3d56" height="6" width="27" y="154.06115" x="307.55579"/>
  <path id="svg_14" fill="#ff6584" d="m509.70664,104.90155c3.498,-44.04411 -22.67651,-82.05289 -58.46226,-84.895s-67.63166,30.55863 -71.12967,74.60274c-3.17135,39.93119 18.04708,74.90045 48.70535,83.20145l-3.06739,12.71282l23.74847,1.88612l-1.02227,-13.03763c31.5842,-3.35763 58.0564,-34.53931 61.22777,-74.4705z"/>
  <path id="svg_15" fill="#fff" d="m400.38305,117.28512l-8.97175,-0.71254a146.4936,146.4936 0 0 1 4.03774,-50.83991l8.97175,0.71254q-7.91829,25.90458 -4.03774,50.83991z"/>
  <rect id="svg_16" transform="rotate(4.54094 -289.491 -158.465)" fill="#3f3d56" height="6" width="27" y="119.80124" x="449.54905"/>
  <rect id="svg_17" transform="rotate(-58.5062 -377.122 669.093)" fill="#3f3d56" height="3.0002" width="376.13849" y="1108.26404" x="89.67216"/>
  <path id="svg_18" fill="#6c63ff" d="m560.50087,148.17084c20.78829,-38.98675 11.96138,-84.2842 -19.71528,-101.17464s-74.208,1.02208 -94.99628,40.00883c-18.847,35.34612 -13.351,75.87841 11.44542,95.72721l-7.887,10.4317l21.02155,11.209l4.26692,-12.362c30.29916,9.52891 67.01763,-8.49398 85.86467,-43.8401z"/>
  <path id="svg_19" fill="#fff" d="m455.32136,115.8865l-7.94157,-4.23456a146.4937,146.4937 0 0 1 23.99586,-45.0022l7.94157,4.23456q-17.6004,20.59056 -23.99586,45.0022z"/>
  <rect id="svg_20" transform="rotate(28.0672 -86.234 -432.073)" fill="#3f3d56" height="6" width="27" y="-145.36061" x="678.95119"/>
  <rect id="svg_21" transform="rotate(-53.9627 -397.456 622.285)" fill="#3f3d56" height="3.0001" width="376.13796" y="1063.65377" x="81.93131"/>
  <rect id="svg_22" fill="#3f3d56" transform="matrix(0.17486 -0.98459 0.98459 0.17486 -256.347 863.135)" height="2.9998" width="376.13841" y="445.48174" x="415.30797"/>
  <polygon id="svg_26" fill="#f2f2f2" points="492.715 480.274 492.715 480.274 492.715 480.274 492.715 480.274"/>
  <polygon id="svg_28" fill="#f2f2f2" points="350.832 578.731 350.832 578.73 350.832 578.73 350.832 578.731"/>
  <g id="svg_1">
   <circle stroke="null" fill="#ED6C53" r="88.79835" cy="505.03225" cx="221.44417" id="svg_3"/>
   <path stroke="null" fill="white" d="m202.83015,568.02807c7.75331,0 16.61919,-2.02625 25.61694,-5.8142c0.28109,-0.11631 0.56149,-0.24043 0.83981,-0.3688c0.2568,-0.11702 0.51152,-0.2383 0.76138,-0.35816l0.11174,-0.05248l0.01805,-0.00922c3.80066,-0.96738 7.7547,-2.29433 11.70596,-3.98016c25.38097,-10.76032 36.10623,-27.94549 37.66161,-40.58667c1.86979,-15.46743 -7.66516,-30.25897 -19.64944,-41.35546c-5.70168,-6.85031 -12.76787,-12.84685 -19.78964,-17.4741c-8.89295,-5.88023 -18.00036,-9.9094 -26.00978,-11.76571c-7.98165,-1.85022 -14.99579,-1.56965 -19.59323,1.34461c-4.41753,2.78519 -7.6669,8.08237 -9.90919,16.00573c-3.2747,3.91966 -5.6853,9.85117 -7.33007,17.90652c-1.66116,8.13478 -2.55066,18.49226 -2.72646,31.25046c-0.17726,13.34544 0.71217,24.26604 2.6758,32.69089c1.96064,8.41067 5.0104,14.41636 9.22672,17.82559c3.85424,3.12129 9.55126,4.74115 16.38981,4.74115zm31.63442,-18.35467c8.32244,-3.53264 15.077,-7.75889 20.46913,-12.29791c-5.26095,7.15251 -13.68333,14.33196 -26.13541,19.97241c-2.77276,0.68369 -5.44835,1.15745 -7.98374,1.41915c-2.65338,0.27447 -5.15545,0.31773 -7.45834,0.12908c-4.52178,-0.3688 -8.23776,-1.62483 -10.84811,-3.72625l-0.30539,-0.2617c2.05163,0.3766 4.27192,0.58156 6.64212,0.58156c7.75331,0 16.62197,-2.02838 25.61972,-5.81633zm27.40137,-28.59584c-0.05691,0.55036 -0.14298,1.11064 -0.25333,1.68795c-0.10272,0.53334 -0.22626,1.08085 -0.36785,1.64894c-5.47958,7.63903 -14.58422,15.38587 -28.38207,21.25327c-7.07938,3.00427 -13.94221,4.78796 -19.99647,5.34825c-5.96889,0.55036 -11.10838,-0.0922 -14.9021,-1.88299c-4.04288,-8.05464 -6.00831,-21.76249 -5.73721,-41.07248c0.17435,-12.17877 1.01346,-22.08376 2.52651,-29.80507c1.48112,-7.55598 3.5966,-12.95898 6.31592,-16.36467c8.49179,0.63475 19.65847,4.9303 30.72104,12.25898c8.03718,5.31704 16.13058,12.46955 21.92456,20.59653c5.79815,8.13123 9.25941,17.18304 8.151,26.3313zm-27.77269,-50.54989c-9.77163,-6.45648 -19.80769,-10.69131 -28.36402,-12.25423c0.96127,-0.39837 2.04608,-0.69475 3.25443,-0.88383c1.03484,-0.16206 2.16129,-0.24539 3.37589,-0.24539c8.93321,0 21.23606,4.57924 32.94341,12.31948c3.98527,2.61866 7.97055,5.71371 11.68653,9.16407c7.39101,8.94258 12.18833,19.38305 10.92931,29.91145c-0.25472,2.11561 -0.80094,4.38654 -1.69211,6.73478c-0.6184,-8.60287 -4.47736,-16.85963 -9.9611,-24.21711c-6.06814,-8.14471 -14.15945,-15.23126 -22.17234,-20.52922zm-45.67741,-4.83207c0.72113,-0.75929 1.50333,-1.40681 2.31378,-1.91327c0.67941,-0.43298 1.43621,-0.79312 2.26783,-1.0805c0.86688,-0.29936 1.81704,-0.52071 2.84702,-0.66326c-2.42573,4.13803 -4.25075,9.73741 -5.529,16.87715c-1.39457,7.78159 -2.14838,17.43198 -2.30482,29.08733c-0.20412,14.25608 0.82981,25.74193 3.09889,34.38026c-1.8668,-3.32625 -3.33876,-7.77804 -4.3906,-13.36813c-1.42434,-7.57237 -2.0694,-17.17311 -1.91296,-28.76677c0.19364,-14.83551 1.38999,-26.30435 3.60986,-34.55281zm16.52424,-16.36289c6.37214,0 14.49607,2.34774 22.90179,6.53449c-3.77983,-1.31156 -7.40767,-2.20965 -10.76829,-2.66434c-6.10284,-0.82461 -11.40682,-0.19589 -15.1117,2.17667c-0.99389,0.62724 -1.87326,1.36029 -2.73736,2.2254c-3.16421,-0.03979 -6.02164,0.40071 -8.42932,1.36483c1.66574,-3.70881 3.6903,-6.23811 5.9904,-7.68698c1.985,-1.28156 4.70848,-1.95008 8.15447,-1.95008zm-10.77801,102.55631l0.20544,0.13121c0.18184,0.11418 0.36854,0.22766 0.55594,0.3383c1.41865,2.55036 3.07953,4.60995 4.98957,6.16101c2.85743,2.31987 6.72541,3.7915 11.31521,4.41349c-4.12339,0.73546 -7.96291,0.95816 -11.36449,0.67518c-4.50374,-0.37376 -8.20146,-1.6305 -10.79238,-3.71349c-3.51005,-2.85462 -6.18439,-8.17733 -7.92599,-16.07665c-1.73868,-7.8823 -2.52831,-18.23623 -2.35396,-31.03131c0.16984,-12.51706 1.05184,-22.61852 2.64894,-30.42635c-0.48716,5.32981 -0.77471,11.26741 -0.84925,17.83198c-0.19663,13.34473 0.69281,24.26604 2.66094,32.69018c1.96661,8.41209 5.02678,14.41778 9.24151,17.8263l0.0118,0.00922c0.41019,0.31489 0.83009,0.61915 1.26665,0.91348l0.39006,0.25745zm77.92593,-42.80299c0.49764,-4.16952 0.16796,-8.29365 -0.80927,-12.30146c3.2121,6.26243 4.84521,12.90359 4.02275,19.56603c-1.13687,9.31989 -8.14545,21.78589 -24.15943,31.55827c7.66933,-7.11492 12.10643,-14.80927 13.98802,-21.64759c4.15046,-5.97307 6.32147,-11.96458 6.95792,-17.17524z" clip-rule="evenodd" fill-rule="evenodd" id="svg_4"/>
  </g>
 </g>

</svg>