<?xml version="1.0" encoding="utf-8"?>
<!-- Generator: Adobe Illustrator 23.1.1, SVG Export Plug-In . SVG Version: 6.00 Build 0)  -->
<svg version="1.1" id="Livello_1" xmlns="http://www.w3.org/2000/svg" xmlns:xlink="http://www.w3.org/1999/xlink" x="0px" y="0px"
	 viewBox="0 0 32.6 31.8" style="enable-background:new 0 0 32.6 31.8;" xml:space="preserve">
<style type="text/css">
	.st0{fill:#FFFFFF;}
	.st1{fill-rule:evenodd;clip-rule:evenodd;fill:#181616;}
	.st2{fill:#181616;}
</style>
<path class="st0" d="M31.8,16.5c-0.7,8.4-6.3,16-15.9,16S0.6,24.6,0.4,16.2C0.2,7.6,7.6,0.1,16.3,0.1S31.9,7.9,31.8,16.5z"/>
<title>Risorsa 3</title>
<g>
	<path class="st1" d="M16.1,0C7.2,0,0,7.3,0,16.3c0,7.2,4.6,13.3,11,15.5c0.8,0.2,1.1-0.4,1.1-0.8s0-1.7,0-3c-4.5,1-5.4-1.9-5.4-1.9
		c-0.7-1.9-1.8-2.4-1.8-2.4c-1.5-1,0.1-1,0.1-1c1.6,0.1,2.5,1.7,2.5,1.7c1.4,2.5,3.8,1.8,4.7,1.4c0.1-1.1,0.6-1.8,1-2.2
		c-3.6-0.4-7.3-1.8-7.3-8.1c0-1.8,0.6-3.2,1.7-4.4c-0.3-0.4-0.8-2.1,0-4.3c0,0,1.4-0.4,4.4,1.7C13.3,8.1,14.7,8,16,8
		c1.4,0,2.7,0.2,4,0.5c3.1-2.1,4.4-1.7,4.4-1.7c0.9,2.2,0.3,3.9,0.2,4.3c1,1.1,1.7,2.6,1.7,4.4c0,6.3-3.8,7.6-7.4,8
		c0.6,0.5,1.1,1.5,1.1,3c0,2.2,0,3.9,0,4.5c0,0.4,0.3,0.9,1.1,0.8c6.4-2.2,11-8.3,11-15.5C32.2,7.3,25,0,16.1,0z"/>
	<path class="st2" d="M6.1,23.4c0,0.1-0.2,0.1-0.3,0c-0.1-0.1-0.2-0.2-0.1-0.2c0-0.1,0.2-0.1,0.3-0.1C6.1,23.2,6.1,23.3,6.1,23.4
		L6.1,23.4z"/>
	<path class="st2" d="M6.8,24.1c-0.1,0.1-0.2,0-0.3-0.1c-0.1-0.1-0.1-0.3,0-0.3c0.1-0.1,0.2,0,0.3,0.1C6.8,23.9,6.8,24.1,6.8,24.1
		L6.8,24.1z"/>
	<path class="st2" d="M7.4,25.1c-0.1,0.1-0.3,0-0.4-0.1s-0.1-0.3,0-0.4s0.3,0,0.4,0.1C7.5,24.8,7.5,25,7.4,25.1L7.4,25.1z"/>
	<path class="st2" d="M8.3,26c-0.1,0.1-0.3,0.1-0.4-0.1c-0.1-0.1-0.2-0.3-0.1-0.4s0.3-0.1,0.4,0.1C8.3,25.7,8.3,25.9,8.3,26L8.3,26z
		"/>
	<path class="st2" d="M9.5,26.5c0,0.1-0.2,0.2-0.4,0.1s-0.3-0.2-0.3-0.3c0-0.1,0.2-0.2,0.4-0.1C9.4,26.2,9.5,26.4,9.5,26.5L9.5,26.5
		z"/>
	<path class="st2" d="M10.8,26.6c0,0.1-0.2,0.2-0.3,0.2c-0.2,0-0.3-0.1-0.4-0.2c0-0.1,0.2-0.2,0.3-0.2
		C10.6,26.4,10.8,26.5,10.8,26.6L10.8,26.6z"/>
	<path class="st2" d="M12,26.4c0,0.1-0.1,0.3-0.3,0.3s-0.4,0-0.4-0.2c0-0.1,0.1-0.3,0.3-0.3C11.8,26.2,12,26.3,12,26.4L12,26.4z"/>
</g>
</svg>
