<svg xmlns="http://www.w3.org/2000/svg" viewBox="0 0 120.8 117.8"><defs><style>.cls-1,.cls-2{fill:#fff;}.cls-1{fill-rule:evenodd;}</style></defs><title>Risorsa 2</title><g id="Livello_2" data-name="Livello 2"><g id="Layer_1" data-name="Layer 1"><path class="cls-1" d="M60.4,0A60.4,60.4,0,0,0,41.3,117.7c3,.5,4.1-1.3,4.1-2.9s0-6.2-.1-11.3C28.5,107.2,25,96.4,25,96.4c-2.8-7-6.7-8.8-6.7-8.8-5.5-3.8.4-3.7.4-3.7,6.1.4,9.3,6.2,9.3,6.2,5.3,9.3,14.1,6.6,17.5,5.1.6-4,2.1-6.6,3.9-8.1C36,85.6,21.9,80.4,21.9,57.2A23.3,23.3,0,0,1,28.1,41c-.6-1.5-2.7-7.6.6-16,0,0,5-1.6,16.6,6.2a58,58,0,0,1,30.2,0C87,23.4,92.1,25,92.1,25c3.3,8.4,1.2,14.5.6,16a23.3,23.3,0,0,1,6.2,16.2c0,23.2-14.1,28.3-27.6,29.8,2.2,1.9,4.1,5.6,4.1,11.2v16.6c0,1.6,1.1,3.5,4.1,2.9A60.4,60.4,0,0,0,60.4,0Z"/><path class="cls-2" d="M22.9,86.7a.9.9,0,0,1-1.1.2.8.8,0,0,1-.5-.9c.1-.3.6-.4,1-.2s.7.6.6.9Z"/><path class="cls-2" d="M25.3,89.4c-.3.3-.8.2-1.2-.2s-.5-1-.2-1.3.9-.1,1.2.3.5,1,.2,1.2Z"/><path class="cls-2" d="M27.7,92.9c-.4.3-1,0-1.4-.5a1.2,1.2,0,0,1,.1-1.5c.3-.2.9,0,1.3.6a1,1,0,0,1,0,1.4Z"/><path class="cls-2" d="M31,96.3a1.3,1.3,0,0,1-1.6-.3,1,1,0,0,1-.3-1.5c.3-.4,1-.3,1.5.2a1.2,1.2,0,0,1,.4,1.6Z"/><path class="cls-2" d="M35.5,98.2a1.2,1.2,0,0,1-1.5.5c-.7-.2-1.2-.8-1-1.2s.8-.7,1.5-.5,1.1.7,1,1.2Z"/><path class="cls-2" d="M40.4,98.6c0,.5-.6.9-1.3.9s-1.3-.4-1.3-.9.6-.9,1.3-.9,1.3.4,1.3.9Z"/><path class="cls-2" d="M45,97.8c.1.5-.4,1-1.1,1.1s-1.4-.2-1.5-.6.5-1,1.2-1.2,1.3.2,1.4.7Z"/></g></g></svg>