<svg width="66" height="66" xmlns="http://www.w3.org/2000/svg" fill="none">

    <g>
        <g stroke="null" id="svg_6">
            <circle stroke="null" id="svg_1" fill="white" r="32.79622" cy="32.79622" cx="32.91967" />
            <rect stroke="null" id="svg_2" fill="white" rx="11.4999" height="45.71554" width="45.88962" y="7.9506"
                x="10.97225" />
            <rect stroke="null" id="svg_3" fill="white" rx="11.4999" height="45.71554" width="45.88962" y="7.9506"
                x="10.97225" />
            <path stroke="null" id="svg_4" fill="#202024"
                d="m45.08997,33.87253c0,1.69209 -0.38965,3.24543 -1.16935,4.66024c-0.7797,1.38678 -1.97698,2.5102 -3.59184,3.37026c-1.61486,0.85986 -3.61957,1.28979 -6.01412,1.28979l-4.427,0l0,10.48525l-7.14197,0l0,-29.2091l11.56897,0c2.33889,0 4.31567,0.4023 5.93073,1.2067c1.61486,0.8044 2.8259,1.91411 3.63353,3.32872c0.80743,1.41461 1.21104,3.03733 1.21104,4.86815zm-11.31818,3.66145c1.36427,0 2.38059,-0.31882 3.04876,-0.95685c0.66817,-0.63804 1.00235,-1.53963 1.00235,-2.70459c0,-1.16496 -0.33418,-2.06656 -1.00235,-2.70459c-0.66817,-0.63784 -1.68449,-0.95685 -3.04876,-0.95685l-3.88412,0l0,7.3229l3.88412,0z" />
            <path stroke="null" id="svg_5" fill="#E50913"
                d="m45.23602,17.06874l-22.49132,0l0,4.70079l22.49132,0l0,-4.70079z" />
        </g>
    </g>
</svg>