<?xml version="1.0" encoding="utf-8"?>
<!-- Generator: Adobe Illustrator 23.1.1, SVG Export Plug-In . SVG Version: 6.00 Build 0)  -->
<svg version="1.1" id="fb0462f1-4822-46c6-85a1-002b71cfcb82" xmlns="http://www.w3.org/2000/svg"
	xmlns:xlink="http://www.w3.org/1999/xlink" x="0px" y="0px" viewBox="0 0 785.1 524.5"
	style="enable-background:new 0 0 785.1 524.5;" xml:space="preserve">
	<style type="text/css">
		.st0 {
			fill: #3F3D56;
		}

		.st1 {
			fill: none;
			stroke: #3F3D56;
			stroke-width: 2;
			stroke-miterlimit: 10;
		}

		.st2 {
			fill: #DC8C00;
			animation-duration: 1s;
			animation-name: pulse;
			animation-iteration-count: infinite;
		}

		.st3 {
			fill: #DC735B;
		}

		.st4 {
			fill: #FFFFFF;
			stroke: #FFFFFF;
			stroke-width: 0.343;
			stroke-miterlimit: 10;
		}

		@keyframes pulse {
			from {
				fill: #ffb330;
			}

			to {
				fill: #DC8C00;
			}
		}
	</style>
	<title>nakamoto</title>
	<rect x="102.7" y="117" class="st0" width="2" height="107" />
	<rect x="102.7" y="255.9" class="st0" width="2" height="94.1" />
	<rect x="99.7" y="365" class="st0" width="155" height="2" />
	<rect x="33.7" y="392" class="st0" width="2" height="85" />
	<rect x="51.7" y="492" class="st0" width="235" height="2" />
	<path class="st1" d="M302.7,477" />
	<rect x="480.7" y="49" class="st0" width="2" height="101" />
	<rect x="318.6" y="166" class="st0" width="147" height="2" />
	<rect x="301.7" y="182" class="st0" width="2" height="135" />
	<path class="st0" d="M103.7,257c-9.4,0-17-7.6-17-17s7.6-17,17-17s17,7.6,17,17C120.7,249.4,113,257,103.7,257z M103.7,225
	c-8.3,0-15,6.7-15,15s6.7,15,15,15s15-6.7,15-15C118.7,231.7,111.9,225,103.7,225z" />
	<path class="st0" d="M35.7,510c-9.4,0-17-7.6-17-17s7.6-17,17-17s17,7.6,17,17l0,0C52.7,502.4,45,510,35.7,510z M35.7,478
	c-8.3,0-15,6.7-15,15s6.7,15,15,15s15-6.7,15-15l0,0C50.7,484.7,43.9,478,35.7,478z" />
	<circle class="st2" cx="104.7" cy="366" r="16" />
	<rect x="517.7" y="239" class="st0" width="166" height="2" />
	<rect x="500.7" y="255.9" class="st0" width="2" height="94.1" />
	<rect x="351.7" y="365" class="st0" width="133" height="2" />
	<rect x="585.7" y="374" class="st0" width="138" height="2" />
	<rect x="569.7" y="392" class="st0" width="2" height="85" />
	<rect x="318.7" y="492" class="st0" width="235" height="2" />
	<rect x="301.7" y="415" class="st0" width="2" height="62" />
	<circle class="st2" cx="501.7" cy="240" r="16" />
	<path class="st0" d="M481.7,183c-9.4,0-17-7.6-17-17s7.6-17,17-17s17,7.6,17,17C498.7,175.4,491,183,481.7,183z M481.7,151
	c-8.3,0-15,6.7-15,15s6.7,15,15,15s15-6.7,15-15C496.7,157.7,489.9,151,481.7,151L481.7,151z" />
	<path class="st0" d="M569.7,393c-9.4,0-17-7.6-17-17s7.6-17,17-17s17,7.6,17,17l0,0C586.7,385.4,579,393,569.7,393z M569.7,361
	c-8.3,0-15,6.7-15,15s6.7,15,15,15s15-6.7,15-15l0,0C584.7,367.7,577.9,361,569.7,361z" />
	<circle class="st2" cx="569.7" cy="493" r="16" />
	<path class="st0" d="M302.7,510c-9.4,0-17-7.6-17-17s7.6-17,17-17s17,7.6,17,17l0,0C319.7,502.4,312,510,302.7,510z M302.7,478
	c-8.3,0-15,6.7-15,15s6.7,15,15,15s15-6.7,15-15l0,0C317.7,484.7,310.9,478,302.7,478z" />
	<path class="st0" d="M500.7,383c-9.4,0-17-7.6-17-17s7.6-17,17-17s17,7.6,17,17l0,0C517.7,375.4,510,383,500.7,383z M500.7,351
	c-8.3,0-15,6.7-15,15s6.7,15,15,15s15-6.7,15-15C515.7,357.7,508.9,351,500.7,351z" />
	<path class="st0" d="M35.7,342c-11,0-20,9-20,20s9,20,20,20s20-9,20-20C55.6,351,46.7,342,35.7,342z M35.7,348c3.3,0,6,2.7,6,6
	s-2.7,6-6,6s-6-2.7-6-6C29.7,350.7,32.4,348,35.7,348z M35.7,376.9c-4.8,0-9.3-2.4-12-6.4c0.1-4,8-6.2,12-6.2s11.9,2.2,12,6.2
	C45,374.5,40.5,376.9,35.7,376.9z" />
	<path class="st0" d="M104.7,69c-11,0-20,9-20,20s9,20,20,20s20-9,20-20C124.6,78,115.7,69,104.7,69z M104.7,75c3.3,0,6,2.7,6,6
	s-2.7,6-6,6s-6-2.7-6-6C98.7,77.7,101.4,75,104.7,75z M104.7,103.9c-4.8,0-9.3-2.4-12-6.4c0.1-4,8-6.2,12-6.2s11.9,2.2,12,6.2
	C114,101.5,109.5,103.9,104.7,103.9z" />
	<path class="st0" d="M481.7,0c-11,0-20,9-20,20s9,20,20,20s20-9,20-20C501.6,9,492.7,0,481.7,0z M481.7,6c3.3,0,6,2.7,6,6
	s-2.7,6-6,6s-6-2.7-6-6C475.7,8.7,478.4,6,481.7,6z M481.7,34.9c-4.8,0-9.3-2.4-12-6.4c0.1-4,8-6.2,12-6.2s11.9,2.2,12,6.2
	C491,32.5,486.5,34.9,481.7,34.9z" />
	<path class="st0" d="M711.7,219c-11,0-20,9-20,20s9,20,20,20c11,0,20-9,20-20C731.6,228,722.7,219,711.7,219z M711.7,225
	c3.3,0,6,2.7,6,6s-2.7,6-6,6s-6-2.7-6-6C705.7,227.7,708.4,225,711.7,225z M711.7,253.9c-4.8,0-9.3-2.4-12-6.4c0.1-4,8-6.2,12-6.2
	s11.9,2.2,12,6.2C721,251.5,716.5,253.9,711.7,253.9z" />
	<path class="st0" d="M749.7,354c-11,0-20,9-20,20s9,20,20,20s20-9,20-20C769.6,363,760.7,354,749.7,354z M749.7,360c3.3,0,6,2.7,6,6
	s-2.7,6-6,6s-6-2.7-6-6C743.7,362.7,746.4,360,749.7,360z M749.7,388.9c-4.8,0-9.3-2.4-12-6.4c0.1-4,8-6.2,12-6.2s11.9,2.2,12,6.2
	C759,386.5,754.5,388.9,749.7,388.9z" />
	<g>
		<circle class="st3" cx="303.7" cy="365.3" r="37.6" />
		<path class="st4" d="M315.2,354.6c-2-2.4-4.6-4.6-7.1-6.2c-6.3-4.1-12.9-5.7-16-3.7c-1.5,0.9-2.6,2.8-3.4,5.6
		c-2.3,2.6-3.5,8.3-3.6,17.4c-0.1,9.5,1.3,15.4,4.1,17.7c1.3,1.1,3.3,1.6,5.6,1.6c2.7,0,5.9-0.7,9.1-2.1c0.2-0.1,0.5-0.2,0.7-0.3
		c1.4-0.4,2.8-0.8,4.2-1.4c9.1-3.8,12.9-9.8,13.4-14.1C322.8,363.7,319.5,358.5,315.2,354.6z M294.3,383.2c-0.5-0.4-0.9-0.9-1.3-1.5
		c1.1,0.4,2.4,0.6,3.9,0.6c2.7,0,5.9-0.7,9.1-2.1c4.6-1.9,7.8-4.4,10-7c-1.5,3.6-5,7.8-11.7,10.7
		C300.1,385.1,296.4,384.9,294.3,383.2z M305.9,379.9c-5.3,2.2-10.3,2.6-13.3,1.2c-1.6-3-2.3-8-2.2-15.1c0.1-8.9,1.3-14.6,3.5-17.1
		c3.2,0.2,7.5,1.7,11.7,4.5c6,3.9,12,10.5,11.2,17.3c-0.1,0.5-0.1,0.9-0.3,1.4C314.5,374.8,311,377.7,305.9,379.9z M290.1,349.6
		c0.8-0.5,1.9-0.8,3.2-0.8c-2.2,2.8-3.2,8.3-3.4,17.1c-0.1,6.7,0.6,11.6,2,14.7c-0.1-0.1-0.2-0.1-0.2-0.2c-2.7-2.2-4.1-8-3.9-17.3
		c0.1-5.4,0.5-9.6,1.4-12.7C289.3,350.1,289.7,349.8,290.1,349.6z M305.8,352.9c-4.1-2.7-8.3-4.2-11.5-4.5c0.2-0.2,0.4-0.4,0.7-0.5
		c0.8-0.5,1.9-0.8,3.2-0.8c3.3,0,7.8,1.6,12.3,4.5c1.5,1,3,2.1,4.3,3.3c2.8,3.3,4.6,7.2,4.2,11.2c-0.2,1.4-0.7,3.1-1.7,4.8
		c0-0.1,0-0.1,0-0.2C318.1,363.6,311.9,356.8,305.8,352.9L305.8,352.9z M292.3,345.1c0.8-0.5,1.9-0.8,3.2-0.8
		c3.3,0,7.8,1.6,12.3,4.5c1.5,1,2.9,2,4.2,3.2c-0.4-0.3-0.8-0.6-1.2-0.9c-6.3-4.1-12.9-5.7-16-3.7c-0.4,0.2-0.7,0.5-1.1,0.9
		c-1.5-0.1-2.9,0.2-3.8,0.8c-0.2,0.1-0.3,0.2-0.5,0.3C290.1,347.3,291,345.8,292.3,345.1L292.3,345.1z M289.4,384.9
		c-2.7-2.2-4.1-8-3.9-17.3c0.1-7.9,1-13.2,2.8-16.1c-0.7,2.9-1,6.8-1.1,11.6c-0.1,9.5,1.3,15.4,4.1,17.7c0.3,0.2,0.6,0.4,0.9,0.6
		c0.5,0.9,1.1,1.7,1.8,2.2c1.3,1.1,3.3,1.6,5.6,1.6c0.8,0,1.6-0.1,2.3-0.2C296.7,386.9,291.9,386.9,289.4,384.9L289.4,384.9z
		 M321.7,368.9c-0.5,4.2-4.2,10-13.1,13.7c-0.5,0.2-0.9,0.4-1.4,0.5c5.8-3.3,8.8-7.5,9.7-11c1.5-2.1,2.3-4.2,2.5-6
		c0.4-3.1-0.6-6.1-2.3-8.9C320.2,360.7,322.2,364.8,321.7,368.9z" />
	</g>
	<circle class="st2" cx="302.7" cy="168" r="16" />
</svg>