<?xml version="1.0" encoding="utf-8"?>
<!-- Generator: Adobe Illustrator 23.1.1, SVG Export Plug-In . SVG Version: 6.00 Build 0)  -->
<svg version="1.1" id="f6dc6f51-58d1-4328-a543-5a2c5176acea"
	 xmlns="http://www.w3.org/2000/svg" xmlns:xlink="http://www.w3.org/1999/xlink" x="0px" y="0px" viewBox="0 0 922.2 547.1"
	 style="enable-background:new 0 0 922.2 547.1;" xml:space="preserve">
<style type="text/css">
	.st0{fill:#001F31;}
	.st1{fill:#F2F2F2;}
	.st2{opacity:0.1;}
	.st3{fill:#FF6584;}
	.st4{fill:#E6E6E6;}
	.st5{fill:#FFFFFF;}
	.st6{fill:#F36852;}
	.st7{display:none;}
	.st8{display:inline;fill:#F2F2F2;}
	.st9{display:inline;opacity:0.1;}
	.st10{display:inline;fill:#3F3D56;}
	.st11{display:inline;fill:#F36852;}
	.st12{fill:url(#SVGID_1_);}
	.st13{opacity:5.000000e-02;enable-background:new    ;}
	.st14{fill:url(#SVGID_2_);}
	.st15{opacity:0.5;fill:none;stroke:#BDBDBD;stroke-width:0.382;stroke-miterlimit:10;enable-background:new    ;}
	.st16{fill:url(#SVGID_3_);}
	.st17{fill:none;stroke:#BDBDBD;stroke-width:0.382;stroke-miterlimit:10;}
	.st18{fill:url(#SVGID_4_);}
	.st19{fill:url(#SVGID_5_);}
	.st20{fill:#4F617D;}
	.st21{fill:#FF656A;}
	.st22{fill:#4A5C81;}
	.st23{fill:#FF6469;}
	.st24{fill:#FFF6D5;}
	.st25{fill:#53678B;}
	.st26{fill:#658BC8;}
	.st27{fill:#4A77BE;}
	.st28{fill:#CDEFFF;}
	.st29{fill:#0099CC;}
</style>
<g>
	<path class="st0" d="M922.2-0.1v220.8c0,180-145.3,326-324.6,326l0,0H0V325.9c0-118,62.5-221.4,156.1-278.6
		c16.2-9.9,33-18.3,50.7-25.2c10.4-4.1,21-7.6,31.6-10.5c0.2-0.1,0.4-0.1,0.6-0.2c3.2-0.9,6.4-1.7,9.6-2.5c0.2,0,0.3-0.1,0.5-0.1
		c19.8-4.7,39.9-7.6,60.2-8.5c2.4-0.1,4.8-0.2,7.2-0.2c0.9,0,1.7,0,2.6,0c1.8,0,3.7-0.1,5.5-0.1L922.2-0.1z"/>
	<path class="st1" d="M461.1,404.4C206.9,404.4,0.8,468.2,0,547.1h922.2C921.3,468.2,715.2,404.4,461.1,404.4z"/>
</g>
<g class="st2">
	
		<ellipse transform="matrix(0.9975 -7.094087e-02 7.094087e-02 0.9975 -33.5028 19.3313)" cx="255.4" cy="481.3" rx="80" ry="22.2"/>
</g>
<g class="st2">
	<ellipse cx="523.1" cy="458.4" rx="80" ry="22.2"/>
</g>
<g class="st2">
	<ellipse transform="matrix(0.9975 -7.094087e-02 7.094087e-02 0.9975 -33.5028 19.3313)" cx="255.4" cy="481.3" rx="72" ry="20"/>
</g>
<g class="st2">
	<ellipse cx="523.1" cy="458.4" rx="72" ry="20"/>
</g>
<circle class="st1" cx="136.1" cy="88.9" r="7"/>
<circle class="st1" cx="738.1" cy="362.9" r="7"/>
<circle class="st1" cx="430.2" cy="70.7" r="7"/>
<circle class="st3" cx="755.1" cy="95.9" r="4"/>
<circle class="st3" cx="152.1" cy="295.9" r="4"/>
<polygon class="st1" points="92.1,380.2 90.3,380.2 90.3,378.4 89.9,378.4 89.9,380.2 88.1,380.2 88.1,380.6 89.9,380.6 89.9,382.4 
	90.3,382.4 90.3,380.6 92.1,380.6 "/>
<polygon class="st1" points="677.1,232.2 675.3,232.2 675.3,230.4 674.9,230.4 674.9,232.2 673.1,232.2 673.1,232.6 674.9,232.6 
	674.9,234.4 675.3,234.4 675.3,232.6 677.1,232.6 "/>
<polygon class="st1" points="828.1,202.2 826.3,202.2 826.3,200.4 825.9,200.4 825.9,202.2 824.1,202.2 824.1,202.6 825.9,202.6 
	825.9,204.4 826.3,204.4 826.3,202.6 828.1,202.6 "/>
<polygon class="st1" points="503.1,282.2 501.3,282.2 501.3,280.4 500.9,280.4 500.9,282.2 499.1,282.2 499.1,282.6 500.9,282.6 
	500.9,284.4 501.3,284.4 501.3,282.6 503.1,282.6 "/>
<polygon class="st1" points="784.1,292.2 782.3,292.2 782.3,290.4 781.9,290.4 781.9,292.2 780.1,292.2 780.1,292.6 781.9,292.6 
	781.9,294.4 782.3,294.4 782.3,292.6 784.1,292.6 "/>
<polygon class="st1" points="445.1,335.2 443.3,335.2 443.3,333.4 442.9,333.4 442.9,335.2 441.1,335.2 441.1,335.6 442.9,335.6 
	442.9,337.4 443.3,337.4 443.3,335.6 445.1,335.6 "/>
<polygon class="st1" points="573.1,337.2 571.3,337.2 571.3,335.4 570.9,335.4 570.9,337.2 569.1,337.2 569.1,337.6 570.9,337.6 
	570.9,339.4 571.3,339.4 571.3,337.6 573.1,337.6 "/>
<polygon class="st1" points="94.1,167.2 92.3,167.2 92.3,165.4 91.9,165.4 91.9,167.2 90.1,167.2 90.1,167.6 91.9,167.6 91.9,169.4 
	92.3,169.4 92.3,167.6 94.1,167.6 "/>
<rect x="675.1" y="29.6" class="st4" width="2.9" height="58.1"/>
<polygon class="st4" points="609.8,183.9 583.4,244.9 588.6,253.5 586.9,256.4 598.9,262.7 598.9,259.3 603.5,258.1 623.1,222.5 "/>
<path class="st4" d="M589.2,255.8c0,0-19.5,30.5,2.3,35.1s4-32.2,4-32.2L589.2,255.8z"/>
<path class="st5" d="M617.3,242l-6.9,22.4l-2.9,28.7l-5.2,10.3L608,350l9.2,9.2l4,46v20.7l10.9,19l-14.1,20c-2,2.9-1.3,6.8,1.5,8.9
	c1,0.7,2.2,1.1,3.5,1.2c3.1,0.1,7.2-0.8,12.5-3.6c16.7-8.6,16.1-16.7,16.1-16.7s10.3,0,10.9-8s-6.3-65.5-6.3-65.5l-6.3-24.7v-67.3
	h2.3l1.1,57.5l5.2,21.3l0.6,9.2l7.5,92c0,0,33.3,9.2,35.1,1.7s-12.5-12.2-12.5-12.2l8.6-16.7v-32.2l-2.9-6.9l-5.2-46.6l8.6-9.2
	l4.6-5.7v-46l-5.7-17.8l-1.7-14.9l-9.2-23C686.3,239.7,644.3,225.9,617.3,242z"/>
<path class="st6" d="M692.1,112.1c0,24.1-19.6,43.7-43.7,43.7c-24.1,0-43.7-19.6-43.7-43.7c0-9.4,3-18.5,8.6-26.1l0,0
	c14.4-19.4,41.8-23.4,61.1-9C685.5,85.3,692.1,98.3,692.1,112.1z"/>
<g class="st2">
	<path d="M685.8,94l-3.6,20.4c-26.8-69.5-69.4-26.8-70.1-26.1c14.4-19.4,41.8-23.4,61.1-9C678.5,83.2,682.8,88.2,685.8,94z"/>
</g>
<path class="st5" d="M687,91.7l-3.6,20.4C656.6,42.6,614,85.3,613.3,86c14.4-19.4,41.8-23.4,61.1-9C679.7,80.9,684,85.9,687,91.7
	L687,91.7z"/>
<path class="st5" d="M681,83.1l6,20.8c0,0-12.4,37.3-70.1,38.6l-1.9,5.2l-6.3,1.7l-2.9,12.1l8,76.5c0,0-3.4,7.5,2.3,6.9
	c0,0,37.9-12.6,70.7-1.1c0,0,6.9,2.9,5.2-3.4c0,0,23-14.4,21.3-29.3s1.7-84.5,1.7-84.5s3.4-20.1-6.9-24.7
	C708.2,101.7,693,80.5,681,83.1z"/>
<path class="st4" d="M620.4,101.9c0,0-26.3-24.9-34.9-4.2c-8.6,20.6,30.9,9.9,30.9,9.9L620.4,101.9z"/>
<path class="st4" d="M687.7,171.6l-0.6-4.2c-3.7-25.1-10.8-49.7-21.1-73.2l0,0l-11.1-1.1l-47.5-0.4l-1.3,16.6l41.6,12.3
	c0,0,6.8,30.1,11.2,42.9s13.9,16.8,13.9,16.8C680.6,181.3,687.7,171.6,687.7,171.6z"/>
<circle class="st4" cx="684" cy="108.1" r="10.6"/>
<circle class="st4" cx="676.5" cy="29.3" r="7.8"/>
<polygon class="st1" points="484.8,126.6 482.9,126.6 482.9,124.8 482.6,124.8 482.6,126.6 480.8,126.6 480.8,126.9 482.6,126.9 
	482.6,128.8 482.9,128.8 482.9,126.9 484.8,126.9 "/>
<polygon class="st1" points="643.1,95.2 641.3,95.2 641.3,93.4 640.9,93.4 640.9,95.2 639.1,95.2 639.1,95.6 640.9,95.6 640.9,97.4 
	641.3,97.4 641.3,95.6 643.1,95.6 "/>
<polygon class="st1" points="625.1,112.2 623.3,112.2 623.3,110.4 622.9,110.4 622.9,112.2 621.1,112.2 621.1,112.6 622.9,112.6 
	622.9,114.4 623.3,114.4 623.3,112.6 625.1,112.6 "/>
<circle class="st1" cx="554.1" cy="65.9" r="4"/>
<g class="st7">
	<path class="st8" d="M357.1,94.1c0,279-35.1,279-78.4,279c-22.4,0-42.6,0-56.8-38.5c-4.1-11.1-7.7-25.4-10.8-43.7
		c-6.8-41.3-10.8-103.4-10.8-196.7c0-35.9,4.2-71.1,10.8-103.9c3.1-15.8,6.8-31.1,10.8-45.6c4.9-17.8,10.2-34.6,15.6-49.9
		c3.6-10.3,7.2-20,10.8-28.9c16.3-41.2,30.5-66.8,30.5-66.8S357.1-60,357.1,94.1z"/>
	<g class="st9">
		<path d="M248.2-134.3v486.5h-10.8v-457.6C241-115.7,244.7-125.4,248.2-134.3z"/>
	</g>
	
		<ellipse transform="matrix(0.1602 -0.9871 0.9871 0.1602 240.3908 265.6126)" class="st10" cx="276.3" cy="-8.5" rx="43.1" ry="43.1"/>
	<path class="st11" d="M370.8,346.8c-9.6-23.6-21.9-27.6-29.9-27.3v-3.8H215.3v3.8c-8-0.4-20.3,3.7-29.9,27.3
		c-15.6,38.3,9.6,104.1,9.6,104.1s-13.4-91.8,31.2-92.4c3.9,5,8.6,9.3,14,12.7v24.7h72v-22.4c7-3.6,13.2-8.7,18-14.9
		c44.6,0.6,31.2,92.4,31.2,92.4S386.4,385.1,370.8,346.8z"/>
	<circle class="st11" cx="276.3" cy="-8.5" r="33.5"/>
</g>
<path class="st6" d="M844.1-0.1h-2c0.3,45.1,36.9,81.5,82,81.5v-2C880.1,79.4,844.4,43.8,844.1-0.1z"/>
<path class="st6" d="M807.1-0.1h-2c0.3,65.5,53.5,118.5,119,118.5v-2C859.7,116.3,807.4,64.3,807.1-0.1z"/>
<path class="st6" d="M769.1-0.1h-2c0.2,86.4,70.6,156.5,157,156.5v-2C838.8,154.4,769.3,85.1,769.1-0.1z"/>
<g>
	
		<linearGradient id="SVGID_1_" gradientUnits="userSpaceOnUse" x1="333" y1="550.7212" x2="333" y2="467.2255" gradientTransform="matrix(1 0 0 1 0 -316)">
		<stop  offset="0" style="stop-color:#808080;stop-opacity:0.25"/>
		<stop  offset="0.54" style="stop-color:#808080;stop-opacity:0.12"/>
		<stop  offset="1" style="stop-color:#808080;stop-opacity:0.1"/>
	</linearGradient>
	<ellipse class="st12" cx="333" cy="193" rx="40.6" ry="41.7"/>
	<ellipse class="st6" cx="333" cy="193" rx="39.6" ry="40.8"/>
	<ellipse class="st13" cx="320.2" cy="169.4" rx="4.9" ry="5.1"/>
	<ellipse class="st13" cx="335.2" cy="223.6" rx="4.9" ry="5.1"/>
	<ellipse class="st13" cx="340.2" cy="187.2" rx="10.1" ry="10.4"/>
	
		<linearGradient id="SVGID_2_" gradientUnits="userSpaceOnUse" x1="519.1017" y1="597.9689" x2="519.1017" y2="577.7854" gradientTransform="matrix(1 0 0 1 -185 -392.87)">
		<stop  offset="0" style="stop-color:#808080;stop-opacity:0.25"/>
		<stop  offset="0.54" style="stop-color:#808080;stop-opacity:0.12"/>
		<stop  offset="1" style="stop-color:#808080;stop-opacity:0.1"/>
	</linearGradient>
	<path class="st14" d="M348.9,205.1c-5,0-10.3-0.2-15.7-0.7c-12.1-1.1-23.3-3.3-31.7-6.1c-8.4-2.9-12.9-6.2-12.6-9.2
		c0.1-1.5,1.4-2.9,3.9-4.1l0.1,0.3c-2.4,1.1-3.6,2.4-3.8,3.8c-0.1,1.4,0.9,2.9,3.1,4.5c2.1,1.5,5.3,3,9.4,4.4
		c8.3,2.8,19.6,5.1,31.6,6.1s23.5,1,32.2-0.3c4.2-0.6,7.5-1.5,9.9-2.7c2.4-1.1,3.7-2.4,3.8-3.9c0.1-1.6-1.3-3.4-4.2-5.2l0.1-0.3
		c3,1.9,4.5,3.7,4.3,5.5c-0.2,3-5.2,5.5-14,6.8C360.6,204.7,355,205.1,348.9,205.1z"/>
	<path class="st15" d="M375.1,191.5c2.9,1.8,4.4,3.6,4.2,5.4c-0.5,6.1-21.2,9.3-46.1,7s-44.7-9-44.2-15.2c0.1-1.5,1.5-2.8,3.8-4"/>
	
		<linearGradient id="SVGID_3_" gradientUnits="userSpaceOnUse" x1="499.8816" y1="603.9911" x2="499.8816" y2="565.0912" gradientTransform="matrix(1 0 0 1 -185 -392.87)">
		<stop  offset="0" style="stop-color:#808080;stop-opacity:0.25"/>
		<stop  offset="0.54" style="stop-color:#808080;stop-opacity:0.12"/>
		<stop  offset="1" style="stop-color:#808080;stop-opacity:0.1"/>
	</linearGradient>
	<path class="st16" d="M338.1,211.1c-3.6-1.6-7.3-3.4-10.9-5.3c-10.8-5.6-20.4-12-27.1-17.9s-9.7-10.7-8.3-13.4
		c0.7-1.4,2.4-2.2,5.2-2.3v0.3c-2.6,0.1-4.2,0.8-4.9,2.1c-0.6,1.3-0.2,3.1,1.2,5.4c1.4,2.3,3.8,4.8,7.1,7.7
		c6.7,5.9,16.3,12.2,27,17.9c3.6,1.9,7.3,3.7,10.9,5.3L338.1,211.1z"/>
	<path class="st17" d="M338.7,210.9c-3.5-1.6-7.2-3.3-10.9-5.3c-22.3-11.7-38.1-25.6-35.4-31.1c0.7-1.4,2.4-2.1,5-2.2"/>
	
		<linearGradient id="SVGID_4_" gradientUnits="userSpaceOnUse" x1="548.311" y1="613.1057" x2="548.311" y2="603.4752" gradientTransform="matrix(1 0 0 1 -185 -392.87)">
		<stop  offset="0" style="stop-color:#808080;stop-opacity:0.25"/>
		<stop  offset="0.54" style="stop-color:#808080;stop-opacity:0.12"/>
		<stop  offset="1" style="stop-color:#808080;stop-opacity:0.1"/>
	</linearGradient>
	<path class="st18" d="M367.3,220.2c-3.2,0-7.9-1.1-14.1-3.3l0.1-0.3c11.9,4.2,17.7,4.4,19.6,0.6c0.7-1.5,0-3.7-2-6.4l0.2-0.2
		c2.1,2.9,2.8,5.2,2,6.7C372.2,219.2,370.3,220.2,367.3,220.2z"/>
	<path class="st17" d="M371.1,210.4c2,2.7,2.8,5,2,6.6c-1.8,3.6-7.1,4-19.8-0.5"/>
	
		<linearGradient id="SVGID_5_" gradientUnits="userSpaceOnUse" x1="716.1745" y1="13.4754" x2="716.1745" y2="-2.1641" gradientTransform="matrix(0.461 -0.8874 0.8874 0.461 10.8572 847.0277)">
		<stop  offset="0" style="stop-color:#808080;stop-opacity:0.25"/>
		<stop  offset="0.54" style="stop-color:#808080;stop-opacity:0.12"/>
		<stop  offset="1" style="stop-color:#808080;stop-opacity:0.1"/>
	</linearGradient>
	<path class="st19" d="M347.9,208.5c-0.5-0.2-1,0-1.3,0.4l-0.1,0.2l-0.2-0.1l-2-1.1l-0.4-0.2c0,0-0.1,0-0.2,0
		c-1.9-0.6-3.4,0.6-4.4,2.6l0,0c-0.3,0.7-0.6,1.4-0.7,2.2l0,0c-0.1,0.8,0,1.6,0.4,2.2l0,0c0.2,0.3,0.4,0.6,0.7,0.8
		c0,0.1,0.1,0.1,0.1,0.2l2.7,1.5l-0.2,0.4c-0.2,0.5,0,1.1,0.4,1.3l0,0l0.7-1.3l3.4,1.8l0.2-0.4l0.2-0.4l0.3-0.6l0,0l-0.8,1.5
		l1.6,0.9c2,1,3.5-0.3,4.6-2.4l0,0v-0.1l0,0l0,0l0,0l0,0l0,0v-0.1l0,0c1-2.1,1.2-4.2-0.7-5.2l-1.6-0.8l-0.9,1.8l0,0l0.5-0.9l0.2-0.4
		l0.2-0.4l-3.4-1.8L347.9,208.5L347.9,208.5z M342.7,216L342.7,216L342.7,216L342.7,216z"/>
	<polygon class="st20" points="343.7,216.8 347,210.3 350.2,211.9 346.9,218.5 	"/>
	<path class="st21" d="M352.6,217.3L352.6,217.3c-1,2-2.5,3.4-4.3,2.4l-1.5-0.8l3.7-7.4l1.5,0.8
		C353.9,213.4,353.6,215.3,352.6,217.3z"/>
	<path class="st22" d="M352.6,217.3L352.6,217.3L352.6,217.3z"/>
	<path class="st22" d="M351.4,219.1c0.5-0.5,0.9-1.1,1.2-1.7c0.3-0.5,0.5-1.1,0.7-1.7l-0.7-0.3l-1.8,3.5L351.4,219.1z"/>
	<path class="st22" d="M347.5,217.5l2.2-4.3l0,0h0.1c0.3,0.1,0.4,0.5,0.2,0.7l0,0l-1.7,3.3c-0.1,0.3-0.5,0.4-0.7,0.2l0,0
		L347.5,217.5L347.5,217.5z"/>
	<path class="st23" d="M340.3,214.6l0.1-0.1l0,0l6.8,3.6l0,0l-0.4,0.8l0,0l-6.2-3.3C340.2,215.5,340.1,215,340.3,214.6L340.3,214.6z
		"/>
	<path class="st23" d="M343.3,208.7l0.1-0.1c0.2-0.3,0.6-0.5,1-0.3l0,0l6.2,3.3l0,0l-0.4,0.8l0,0L343.3,208.7L343.3,208.7z"/>
	<path class="st21" d="M346.3,209.3l-3.7,7.4l-1.9-1c-2.1-1.1-2.1-3.2-1-5.3l0,0c1-2.1,2.7-3.2,4.8-2.2L346.3,209.3z"/>
	<path class="st24" d="M339.3,214.5l0.8-1.5l-1.1-0.6C338.9,213.2,339,213.9,339.3,214.5z"/>
	<path class="st24" d="M342.7,207.9l-0.8,1.5l-1.1-0.6C341.4,208.2,342,207.9,342.7,207.9z"/>
	<path class="st23" d="M342.5,217.3l0.3-0.6l0,0l0.8,0.4l0,0l-0.6,1.2l0,0l-0.1-0.1C342.4,218.2,342.3,217.7,342.5,217.3
		L342.5,217.3z"/>
	<path class="st23" d="M347.8,208.8l-0.6,1.2l0,0l-0.8-0.4l0,0l0.3-0.6c0.2-0.3,0.6-0.5,1-0.3l0,0L347.8,208.8L347.8,208.8z"/>
	<path class="st25" d="M346.7,210.3l-3.1,6.2l-2.7-2.5c-0.4-0.4-0.6-1-0.3-1.6l1.1-2.3c0.3-0.5,0.9-0.8,1.4-0.7L346.7,210.3z"/>
	<path class="st26" d="M343.8,216.3c-1.3-0.7-1.8-2.5-1-4s2.5-2.2,3.8-1.5"/>
	<polygon class="st21" points="347,210.5 343.9,216.6 343.3,216.3 343.7,216 346.2,210.9 346.4,210.1 	"/>
	<polygon class="st13" points="347,210.5 343.9,216.6 343.3,216.3 343.7,216 346.2,210.9 346.4,210.1 	"/>
	<polygon class="st25" points="345,214.3 345.4,213.5 346.2,213.9 345.8,214.8 	"/>
	<ellipse transform="matrix(0.4499 -0.8931 0.8931 0.4499 -1.1429 426.995)" class="st25" cx="346" cy="214.4" rx="0.9" ry="0.2"/>
	<path class="st13" d="M348.2,218.7c0.7,0.5,1.7,0.3,2.1-0.4c0,0,0,0,0-0.1"/>
	<path class="st13" d="M351,213.1c0.8,0.3,1.2,1.2,0.9,2.1c0,0,0,0,0,0.1"/>
	<path class="st13" d="M341.3,213.2c0,0-0.2-1.7,1.4-2.8"/>
	<path class="st13" d="M342,213.5c0,0-0.2-1.7,1.4-2.8"/>
	<ellipse class="st27" cx="343.6" cy="214.1" rx="0.7" ry="0.7"/>
	<ellipse class="st27" cx="344.6" cy="211.7" rx="0.4" ry="0.4"/>
	<path class="st28" d="M346,213.5v-0.1c0-0.1,0-0.3,0.2-0.3l1.4-0.3c0.1,0,0.3,0,0.3,0.2l0,0l0.1,0.4l0,0l-1.7,0.3
		C346.2,213.7,346,213.6,346,213.5z"/>
	<path class="st13" d="M346.8,213.7l-0.1-0.7l0,0l0.8-0.1c0.3,0,0.6,0.1,0.6,0.4l0,0v0.1l0,0L346.8,213.7L346.8,213.7z"/>
	<path class="st28" d="M345.6,216.6l0.5-1.1l0,0l1.2,0.6l0,0l-0.5,1.1c-0.1,0.3-0.5,0.4-0.8,0.2l0,0l-0.2-0.1
		C345.6,217.2,345.5,216.9,345.6,216.6L345.6,216.6z"/>
	<path class="st28" d="M346.9,217.1l-0.2,0.5c-0.2,0.4-0.8,0.5-1.3,0.2l-0.6-0.3l0.3-0.6L346.9,217.1z"/>
	<path class="st28" d="M343.6,216.7v-0.1c0-0.1,0.2-0.2,0.4-0.1l1,0.5l0,0l-0.3,0.6l0,0l-1-0.5C343.6,217,343.5,216.8,343.6,216.7z"
		/>
	<path class="st13" d="M346.7,216.2c0.2,0.1,0.4,0.1,0.7,0.1l0,0l-1.2-0.6C346.3,215.9,346.5,216.1,346.7,216.2z"/>
	<path class="st28" d="M348.6,213.8l-0.5,1.1l0,0l-1.2-0.6l0,0l0.5-1.1c0.1-0.3,0.5-0.4,0.8-0.2l0,0l0.2,0.1
		C348.7,213.2,348.7,213.5,348.6,213.8L348.6,213.8L348.6,213.8z"/>
	<path class="st13" d="M347.7,214.3c0.2,0.1,0.4,0.3,0.5,0.5l0,0l-1.2-0.6C347.2,214.1,347.4,214.1,347.7,214.3z"/>
	<ellipse class="st28" cx="347.2" cy="215.2" rx="1" ry="1.1"/>
	<ellipse class="st28" cx="347.1" cy="215.2" rx="1" ry="1.1"/>
	<path class="st26" d="M346.2,214.7c-0.2,0.3-0.1,0.7,0,1.1c0.6,0,1-0.5,1-1.1c0-0.2,0-0.3-0.1-0.5
		C346.7,214.1,346.4,214.4,346.2,214.7z"/>
</g>
<circle class="st1" cx="330.1" cy="317.3" r="4"/>
<circle class="st29" cx="274.1" cy="99.9" r="4"/>
<ellipse class="st3" cx="476" cy="211.7" rx="3.3" ry="3.5"/>
<polygon class="st1" points="525.1,181.1 523.3,181.1 523.3,179.3 522.9,179.3 522.9,181.1 521.1,181.1 521.1,181.5 522.9,181.5 
	522.9,183.3 523.3,183.3 523.3,181.5 525.1,181.5 "/>
<polygon class="st1" points="185.1,183.8 183.2,183.8 183.2,181.9 182.9,181.9 182.9,183.8 181.1,183.8 181.1,184.1 182.9,184.1 
	182.9,185.9 183.2,185.9 183.2,184.1 185.1,184.1 "/>
<polygon class="st1" points="237.9,354.7 236.1,354.7 236.1,355.6 235.7,355.6 235.7,354.7 233.9,354.7 233.9,354.5 235.7,354.5 
	235.7,353.5 236.1,353.5 236.1,354.5 237.9,354.5 "/>
<g class="st2">
	
		<ellipse transform="matrix(6.068241e-02 -0.9982 0.9982 6.068241e-02 175.8013 1195.2396)" cx="723" cy="504.2" rx="16.3" ry="62.2"/>
</g>
<g class="st2">
	
		<ellipse transform="matrix(6.068241e-02 -0.9982 0.9982 6.068241e-02 175.8013 1195.2396)" cx="723" cy="504.2" rx="14.7" ry="56"/>
</g>
</svg>
