<svg xmlns="http://www.w3.org/2000/svg" viewBox="0 0 1024 1024"><defs><style>.cls-1{fill:#141e32;}.cls-2{fill:#dc8c00;}</style></defs><title>Risorsa 1@1x</title><g id="Livello_2" data-name="Livello 2"><g id="Mask"><rect class="cls-1" width="1024" height="1024" rx="225.02"/></g><g id="Logo"><path class="cls-2" d="M937,647.61A445.84,445.84,0,0,0,958,512H512L749,649h.33A273.86,273.86,0,0,1,512,786c-151.33,0-274-122.67-274-274S360.67,238,512,238a273.18,273.18,0,0,1,193.75,80.25h0L706,318H913.71A446.53,446.53,0,0,0,512,66C265.68,66,66,265.68,66,512S265.68,958,512,958c198.52,0,366.75-129.71,424.56-309H937Z"/></g></g></svg>