<?xml version="1.0" encoding="utf-8"?>
<!-- Generator: Adobe Illustrator 23.1.1, SVG Export Plug-In . SVG Version: 6.00 Build 0)  -->
<svg version="1.1" id="Livello_1" xmlns="http://www.w3.org/2000/svg" xmlns:xlink="http://www.w3.org/1999/xlink" x="0px" y="0px"
	 viewBox="0 0 1024 1024" style="enable-background:new 0 0 1024 1024;" xml:space="preserve">
<style type="text/css">
	.st0{fill:#5865F2;}
</style>
<g>
	<path class="st0" d="M860.4,192.4c-64.1-29.4-132.8-51.1-204.6-63.5c-1.3-0.2-2.6,0.4-3.3,1.6c-8.8,15.7-18.6,36.2-25.5,52.3
		c-77.3-11.6-154.1-11.6-229.8,0c-6.9-16.5-17-36.6-25.9-52.3c-0.7-1.2-2-1.8-3.3-1.6c-71.8,12.4-140.5,34-204.6,63.5
		c-0.6,0.2-1,0.6-1.3,1.2C31.7,388.3-4,578.2,13.5,765.7c0.1,0.9,0.6,1.8,1.3,2.4c86,63.1,169.3,101.5,251,126.9
		c1.3,0.4,2.7-0.1,3.5-1.2c19.3-26.4,36.6-54.3,51.4-83.5c0.9-1.7,0-3.7-1.7-4.4c-27.3-10.4-53.4-23-78.4-37.4c-2-1.2-2.1-4-0.3-5.3
		c5.3-3.9,10.5-8.1,15.6-12.2c0.9-0.8,2.2-0.9,3.2-0.4c164.5,75.1,342.6,75.1,505.2,0c1.1-0.5,2.3-0.4,3.3,0.4
		c5,4.1,10.3,8.3,15.6,12.2c1.8,1.4,1.7,4.2-0.3,5.3c-25,14.6-51.1,27-78.5,37.3c-1.8,0.7-2.6,2.8-1.7,4.5
		c15.1,29.2,32.3,57.1,51.3,83.5c0.8,1.1,2.2,1.6,3.5,1.2c82.1-25.4,165.4-63.7,251.4-126.9c0.8-0.6,1.2-1.4,1.3-2.3
		c21-216.8-35.1-405.2-148.6-572.2C861.4,193,860.9,192.6,860.4,192.4z M345.3,651.5c-49.5,0-90.3-45.5-90.3-101.3
		c0-55.8,40-101.3,90.3-101.3c50.7,0,91.1,45.9,90.3,101.3C435.6,606.1,395.6,651.5,345.3,651.5z M679.3,651.5
		c-49.5,0-90.3-45.5-90.3-101.3c0-55.8,40-101.3,90.3-101.3c50.7,0,91.1,45.9,90.3,101.3C769.7,606.1,730,651.5,679.3,651.5z"/>
</g>
</svg>
