<?xml version="1.0" encoding="utf-8"?>
<!-- Generator: Adobe Illustrator 23.1.1, SVG Export Plug-In . SVG Version: 6.00 Build 0)  -->
<svg version="1.1" id="a0179547-7667-4cb3-b9ae-32eca47089ab" xmlns="http://www.w3.org/2000/svg"
	xmlns:xlink="http://www.w3.org/1999/xlink" x="0px" y="0px" viewBox="0 0 926.6 786"
	style="enable-background:new 0 0 926.6 786;" xml:space="preserve">
	<style type="text/css">
		.st0 {
			fill: #3F3D56;
		}

		.st1 {
			fill: #6C63FF;
		}

		.st2 {
			fill: #FF6584;
		}

		.st3 {
			fill: #F0F0F0;
		}

		.st4 {
			fill: #FFB6B6;
		}

		.st5 {
			fill: none;
		}

		.st6 {
			fill: #E4E4E4;
		}

		.st7 {
			opacity: 0.3;
			fill: #F0F0F0;
			enable-background: new;
		}

		.st8 {
			fill: #F2F2F2;
		}

		.st9 {
			fill-rule: evenodd;
			clip-rule: evenodd;
		}

		.st10 {
			opacity: 0.67;
			fill-rule: evenodd;
			clip-rule: evenodd;
			fill: #FFFFFF;
			enable-background: new;
		}

		.st11 {
			fill-rule: evenodd;
			clip-rule: evenodd;
			fill: #FFFFFF;
		}

		.st12 {
			fill: #ED6D54;
		}

		.st13 {
			fill: #FFFFFF;
			fill-opacity: 0.602;
		}

		.st14 {
			fill: #FFFFFF;
		}

		.st15 {
			fill: #FFFFFF;
			fill-opacity: 0.2;
		}

		.st16 {
			fill: #EE3424;
		}

		.st17 {
			fill: #AF1F23;
		}

		.st18 {
			fill: #F7931A;
		}

		.st19 {
			fill-rule: evenodd;
			clip-rule: evenodd;
			fill: #4520E6;
		}
	</style>
	<path class="st0" d="M894.2,329.1c-46.3,59.3-133.8,72.8-206.1,52.2c-23.7-6.9-46.5-16.4-68.1-28.4c-12.5-6.8-24.8-14.3-36.8-22.2
	c-3-2-5.9-3.9-8.8-6c-2-1.4-4-2.7-6-4.1c-24.8-17.4-48.5-36.5-71.9-55.5c-58.4-47.4-118.4-96.3-190.1-118.9
	c-14.8-4.7-33.9-6.8-43,5.7c-7.9,10.9-3.1,26.3,3.6,37.9c24.9,43.2,70.1,70.5,115.3,91.4c45.2,21,93.1,38,132.4,68.6
	C554,380.4,584,429.1,576,478.3c-6.9,42.4-41.5,76.8-81.8,91.8c-40.2,15-85.1,12.9-126.9,3.2c-41.8-9.8-81.5-26.8-121.9-41.4
	c-24.3-8.8-56.2-15-72.3,5.3c-13.6,17.1-5.8,44.1,10.8,58.3s39.1,19,60.5,23.3c66.6,13.3,133.2,26.6,199.8,39.9
	c20.4,4.1,41.3,8.3,59.1,19.2c17.8,10.8,32.2,29.8,31.7,50.6c-0.5,20.5-15.5,38.7-34,47.8c-18.4,9.1-39.7,10.5-60.2,9.5
	C363.9,782,143.6,659.9,90.7,644.3c-34-10-71.1-24.7-85.4-57.1c-17.8-40.3,11.5-89.1,51.6-107.5c40-18.4,86.5-14.3,130.1-8.1
	c43.6,6.2,88.7,14.1,131.2,2.3c42.5-11.8,81.4-50.2,77.2-94.1c-3.7-38.2-38-67-74.2-79.6c-28.3-9.9-58.5-12.6-88.2-17.1
	c-8.3-1.2-16.5-2.6-24.6-4.3c-20.9-4.4-41.2-10.9-60.8-19.5c-20.5-9-39.9-20.2-58-33.3c-14.4-10.5-27.9-22.2-40.3-35
	c-1.9-2-3.8-4-5.6-6c-1.8-2-3.5-4-5.2-6C16.3,152.5-0.1,120,4.8,86.4c4.9-33.4,31-61.3,62-74.7C84.8,4,104.1,0.6,123.7,0.1
	c14.3-0.3,28.6,0.7,42.8,3.1c65.4,10.5,125.4,42.2,182,76.6c56.6,34.4,111.8,72.2,173.3,96.7c61.5,24.5,131.6,34.9,194,12.7
	c62.4-22.2,113.7-82.7,110.6-148.9c41.4,35.7,76.6,80.5,92.2,132.8C934.1,225.6,927.9,286,894.2,329.1z" />
	<circle class="st1" cx="595.9" cy="253.4" r="7.3" />
	<circle class="st2" cx="852.9" cy="157.4" r="11.3" />
	<circle class="st2" cx="114.9" cy="511.4" r="4.2" />
	<path class="st2" d="M234.2,272.4c0,3.6-0.4,7.2-1.3,10.7c-8.3-1.2-16.5-2.6-24.6-4.3c-20.9-4.4-41.2-10.9-60.8-19.5
	c7.2-23.4,32.1-36.5,55.5-29.2C221.6,235.8,234.2,253,234.2,272.4z" />
	<circle class="st3" cx="780.9" cy="230.4" r="4.3" />
	<circle class="st4" cx="441.1" cy="694.1" r="4.3" />
	<circle class="st3" cx="452.9" cy="757.4" r="4.3" />
	<circle class="st3" cx="75.9" cy="589.4" r="4.3" />
	<circle class="st3" cx="284.9" cy="510.4" r="4.3" />
	<circle class="st3" cx="263.9" cy="88.4" r="4.3" />
	<circle class="st3" cx="520.9" cy="421.4" r="4.3" />
	<circle class="st3" cx="552.9" cy="495.4" r="4.3" />
	<path class="st5" d="M154.8,163.7c6-1.8,11.8-3.8,17.4-5.9c34-13.1,53.4-30.9,53.4-48.8s-19.5-35.7-53.4-48.8
	c-3.4-1.3-6.8-2.5-10.4-3.7C174.3,91.6,171.8,130.4,154.8,163.7L154.8,163.7z" />
	<path class="st1" d="M169.6,102c0,21.5-5,42.6-14.8,61.8c-1.3,2.5-2.7,5-4.1,7.4c-14.3,24.1-35.7,43.3-61.2,54.8
	c-14.4-10.5-27.9-22.2-40.3-35c-1.9-2-3.8-4-5.6-6c-1.8-2-3.5-4-5.2-6C16.3,152.5-0.1,120,4.8,86.4c4.9-33.4,31-61.3,62-74.7
	C84.8,4,104.1,0.6,123.7,0.1C139,13.6,151.1,30.4,159,49.2c1,2.4,1.9,4.8,2.8,7.2C167,71,169.7,86.5,169.6,102z" />
	<path class="st6" d="M231.6,109c0,20.8-20.3,40.2-57.3,54.4c-7.4,2.9-15.3,5.4-23.6,7.8c-31.1,8.7-68.2,13.5-107.2,13.8
	c-1.8-2-3.5-4-5.2-6c0.4,0,0.8,0,1.3,0c42.3,0,82.5-5.4,115.2-15.2c6-1.8,11.9-3.8,17.4-5.9c34-13.1,53.4-30.9,53.4-48.8
	s-19.5-35.7-53.4-48.8c-3.4-1.3-6.8-2.5-10.4-3.7c-0.9-2.4-1.8-4.8-2.8-7.2c5.3,1.7,10.4,3.4,15.3,5.3
	C211.3,68.8,231.6,88.1,231.6,109z" />
	<circle class="st3" cx="45.9" cy="30.4" r="4.3" />
	<circle class="st3" cx="134.9" cy="57.4" r="4.3" />
	<circle class="st3" cx="88.9" cy="100.4" r="41.3" />
	<path class="st7" d="M852.5,319.2c-9.3,2.7-29.7,4.8-52.2,6c-22.5,1.2-47.2,1.8-71.5,2.3c-42.6,0.9-85.3,1.8-127.9,2.8
	c-5.9,0.1-11.7,0.3-17.6,0.4c-3-2-5.9-3.9-8.8-6c5.2,0,10.5,0,15.6-0.1c22.2-0.4,40.9-2.2,62.3-3c32.9-1.3,68.4-0.3,102.7,0.2
	C789.4,322.4,828.4,322.2,852.5,319.2z" />
	<path class="st7" d="M198.1,634.5L62.2,521.2l132,117.8c0.9,1.5,2.8,2,4.3,1.1c1.5-0.9,2-2.8,1.1-4.3
	C199.3,635.2,198.7,634.7,198.1,634.5L198.1,634.5z" />
	<circle class="st3" cx="94.9" cy="201.4" r="4.3" />
	<circle class="st8" cx="405.5" cy="274.3" r="6.2" />
	<circle class="st4" cx="393.3" cy="308" r="17" />
	<g>
		<path class="st9" d="M443.4,472.2c12.8,0,23.2,10.4,23.2,23.2s-10.4,23.2-23.2,23.2c-12.8,0-23.2-10.4-23.2-23.2
		S430.6,472.2,443.4,472.2z" />
		<path class="st10" d="M444.1,462c-0.3-0.3-0.5-0.3-0.5-0.3c0,0-0.2,0-0.5,0.3c-0.3,0.3-0.7,0.8-1.1,1.6c-0.8,1.6-1.7,4-2.3,7.2
		c-0.8,3.5-1.4,7.8-1.8,12.6c1.9,0.9,3.8,1.9,5.8,3c2-1.1,3.9-2.1,5.8-3c-0.4-4.8-1-9.1-1.8-12.6c-0.7-3.1-1.5-5.6-2.3-7.2
		C444.8,462.9,444.4,462.3,444.1,462z M441.9,487.3c-1.4-0.8-2.9-1.5-4.3-2.2c-0.1,1.6-0.2,3.1-0.2,4.8c0.7-0.4,1.5-0.9,2.2-1.3
		S441.2,487.7,441.9,487.3z M436.3,482.7c1.1-13.2,4-22.6,7.3-22.6c3.3,0,6.2,9.4,7.3,22.6c12-5.6,21.6-7.8,23.2-5
		c1.7,2.9-5,10-15.9,17.6c10.9,7.6,17.6,14.7,15.9,17.6c-1.7,2.9-11.2,0.7-23.2-5c-1.1,13.2-4,22.6-7.3,22.6
		c-3.3,0-6.2-9.4-7.3-22.6c-12,5.6-21.6,7.8-23.2,5c-1.7-2.9,5-10,15.9-17.6c-10.9-7.6-17.6-14.7-15.9-17.6
		C414.7,474.9,424.3,477.1,436.3,482.7z M430.3,494.4c-4-2.7-7.4-5.4-10.1-7.9c-2.4-2.2-4.1-4.1-5-5.6c-0.5-0.8-0.7-1.4-0.8-1.8
		c-0.1-0.4,0-0.6,0-0.6l0,0c0,0,0.1-0.2,0.5-0.3c0.4-0.1,1.1-0.2,2-0.2c1.8,0.1,4.3,0.6,7.4,1.5c3.4,1.1,7.5,2.7,11.8,4.8
		c-0.2,2.1-0.3,4.3-0.3,6.5C433.9,492.1,432.1,493.3,430.3,494.4z M430.3,496.3c-4,2.7-7.4,5.4-10.1,7.9c-2.4,2.2-4.1,4.1-5,5.6
		c-0.5,0.8-0.7,1.4-0.8,1.8c-0.1,0.4,0,0.6,0,0.6c0,0,0.1,0.2,0.5,0.3c0.4,0.1,1.1,0.2,2,0.2c1.8-0.1,4.3-0.6,7.4-1.5
		c3.4-1.1,7.5-2.7,11.8-4.8c-0.2-2.1-0.3-4.3-0.3-6.5C433.9,498.7,432.1,497.5,430.3,496.3z M435.8,498c-1.4-0.9-2.7-1.7-4-2.6
		c1.3-0.9,2.6-1.7,4-2.6c0,0.9,0,1.7,0,2.6S435.7,497.1,435.8,498z M437.4,499c0-1.2,0-2.4,0-3.6s0-2.4,0-3.6c1-0.6,2-1.2,3.1-1.8
		c1.1-0.6,2.1-1.2,3.1-1.8c1,0.6,2.1,1.2,3.1,1.8c1.1,0.6,2.1,1.2,3.1,1.8c0,1.2,0,2.4,0,3.6s0,2.4,0,3.6c-1,0.6-2,1.2-3.1,1.8
		c-1.1,0.6-2.1,1.2-3.1,1.8c-1-0.6-2.1-1.2-3.1-1.8C439.4,500.2,438.4,499.6,437.4,499z M437.4,500.9c0.1,1.6,0.1,3.2,0.2,4.8
		c1.4-0.7,2.8-1.4,4.3-2.2c-0.8-0.4-1.5-0.8-2.3-1.3S438.1,501.3,437.4,500.9z M443.6,504.4c-2,1.1-3.9,2.1-5.8,3
		c0.4,4.8,1,9.1,1.8,12.6c0.7,3.1,1.5,5.6,2.3,7.2c0.4,0.8,0.8,1.3,1.1,1.6c0.3,0.3,0.5,0.3,0.5,0.3c0,0,0.2,0,0.5-0.3
		c0.3-0.3,0.7-0.8,1.1-1.6c0.8-1.6,1.7-4,2.3-7.2c0.8-3.5,1.4-7.8,1.8-12.6C447.5,506.4,445.5,505.4,443.6,504.4z M451,506.4
		c4.4,2.1,8.4,3.7,11.8,4.8c3.1,1,5.6,1.5,7.4,1.5c0.9,0,1.6,0,2-0.2c0.4-0.1,0.5-0.3,0.5-0.3c0,0,0.1-0.2,0-0.6
		c-0.1-0.4-0.4-1-0.8-1.8c-1-1.5-2.7-3.4-5-5.6c-2.7-2.4-6.1-5.1-10.1-7.9c-1.7,1.2-3.6,2.4-5.5,3.5
		C451.3,502.1,451.2,504.3,451,506.4z M456.8,494.4c4-2.7,7.4-5.4,10.1-7.9c2.4-2.2,4.1-4.1,5-5.6c0.5-0.8,0.7-1.4,0.8-1.8
		c0.1-0.4,0-0.6,0-0.6c0,0-0.1-0.2-0.5-0.3c-0.4-0.1-1.1-0.2-2-0.2c-1.8,0.1-4.3,0.6-7.4,1.5c-3.4,1.1-7.5,2.7-11.8,4.8
		c0.2,2.1,0.3,4.3,0.3,6.5C453.3,492.1,455.1,493.3,456.8,494.4z M451.4,492.8c1.4,0.9,2.7,1.7,4,2.6c-1.3,0.9-2.6,1.7-4,2.6
		c0-0.9,0-1.7,0-2.6S451.4,493.6,451.4,492.8z M449.7,489.9c-0.1-1.6-0.1-3.2-0.2-4.8c-1.4,0.7-2.8,1.4-4.3,2.2
		c0.8,0.4,1.5,0.8,2.3,1.3C448.3,489.1,449,489.5,449.7,489.9z M449.5,505.6c-1.4-0.7-2.8-1.4-4.3-2.2c0.8-0.4,1.5-0.8,2.3-1.3
		c0.8-0.4,1.5-0.9,2.2-1.3C449.7,502.5,449.6,504.1,449.5,505.6z" />
		<path class="st11" d="M421.1,485.5c1.4,0,2.5,1.1,2.5,2.5c0,1.4-1.1,2.5-2.5,2.5c-1.4,0-2.5-1.1-2.5-2.5
		C418.6,486.6,419.7,485.5,421.1,485.5z" />
		<path class="st11" d="M460.4,477c1.4,0,2.5,1.1,2.5,2.5c0,1.4-1.1,2.5-2.5,2.5c-1.4,0-2.5-1.1-2.5-2.5
		C458,478.1,459.1,477,460.4,477z" />
		<path class="st11" d="M438.6,515.9c1.4,0,2.5,1.1,2.5,2.5c0,1.4-1.1,2.5-2.5,2.5c-1.4,0-2.5-1.1-2.5-2.5
		C436.1,517.1,437.2,515.9,438.6,515.9z" />
		<path class="st11"
			d="M443.4,491.2c2.3,0,4.2,1.9,4.2,4.2s-1.9,4.2-4.2,4.2s-4.2-1.9-4.2-4.2S441.1,491.2,443.4,491.2z" />
	</g>
	<path class="st12" d="M722.8,242c-3.6-4.2-8.1-7.9-12.6-10.8c-11.2-7.2-22.9-9.9-28.3-6.5c-2.6,1.6-4.6,4.8-6,9.7
	c-4.1,4.6-6.1,14.4-6.4,30.2c-0.2,16.4,2.2,26.8,7.3,30.8c2.3,1.8,5.8,2.8,10,2.8c4.7,0,10.3-1.2,16.1-3.6c0.4-0.2,0.8-0.4,1.3-0.5
	c2.5-0.6,5-1.4,7.4-2.4c16-6.6,22.7-17,23.6-24.6C736.4,257.7,730.4,248.8,722.8,242z M686,291.7c-0.9-0.7-1.6-1.6-2.3-2.5
	c2,0.7,4.3,1.1,6.9,1.1c4.7,0,10.3-1.2,16.1-3.6c8.1-3.3,13.8-7.7,17.6-12.1c-2.6,6.3-8.9,13.5-20.6,18.6
	C696.2,295.1,689.6,294.6,686,291.7z M706.5,285.9c-9.4,3.9-18.3,4.6-23.5,2c-2.8-5.2-4.1-14-3.9-26.3c0.2-15.5,2.3-25.3,6.2-29.7
	c5.7,0.3,13.3,3,20.7,7.8c10.5,6.8,21.3,18.2,19.8,30.2c-0.1,0.8-0.3,1.6-0.5,2.4C721.6,277.2,715.6,282.2,706.5,285.9z
	 M678.5,233.2c1.4-0.9,3.4-1.3,5.6-1.3c-3.8,4.8-5.7,14.4-5.9,29.7c-0.2,11.6,1,20.1,3.5,25.6c-0.1-0.1-0.3-0.2-0.4-0.3
	c-4.9-3.8-7.2-14-7-30.1c0.1-9.4,0.9-16.8,2.4-22C677.2,234.1,677.8,233.6,678.5,233.2z M706.4,239c-7.2-4.6-14.6-7.4-20.4-7.9
	c0.4-0.3,0.7-0.6,1.2-0.9c1.5-0.9,3.4-1.3,5.7-1.3c5.8,0,13.8,2.8,21.7,7.8c2.7,1.7,5.3,3.7,7.7,5.8c4.9,5.8,8.2,12.6,7.3,19.5
	c-0.3,2.5-1.3,5.4-3.1,8.3c0-0.1,0-0.2,0.1-0.4C728.1,257.7,717.1,245.9,706.4,239L706.4,239z M682.4,225.4c1.5-0.9,3.4-1.3,5.7-1.3
	c5.8,0,13.8,2.8,21.7,7.8c2.6,1.7,5.1,3.6,7.4,5.6c-0.7-0.5-1.5-1-2.2-1.5c-11.2-7.2-22.9-9.9-28.3-6.5c-0.7,0.4-1.3,0.9-1.9,1.5
	c-2.7-0.1-5.1,0.4-6.8,1.4c-0.3,0.2-0.6,0.4-0.9,0.6C678.5,229.3,680.2,226.7,682.4,225.4L682.4,225.4z M677.4,294.7
	c-4.9-3.8-7.2-14-7-30.1c0.2-13.8,1.8-23,4.9-28c-1.2,5.1-1.8,11.8-1.9,20.2c-0.2,16.4,2.2,26.8,7.3,30.8c0.5,0.4,1.1,0.8,1.7,1.1
	c0.9,1.6,1.9,2.9,3.1,3.8c2.3,1.8,5.8,2.8,10,2.8c1.4,0,2.8-0.1,4.1-0.3C690.2,298.1,681.7,298.1,677.4,294.7L677.4,294.7z
	 M734.3,266.9c-0.9,7.3-7.5,17.5-23.1,23.9c-0.8,0.3-1.6,0.6-2.4,0.9c10.3-5.7,15.5-13,17.2-19.1c2.6-3.6,4-7.3,4.4-10.4
	c0.7-5.4-1-10.7-4.1-15.5C731.6,252.6,735.2,259.7,734.3,266.9z" />
	<g>
		<path class="st13" d="M418.6,139.4v18l15.2,6.8L418.6,139.4z" />
		<path class="st14" d="M418.6,139.4l-15.2,24.8l15.2-6.8V139.4z" />
		<path class="st13" d="M418.6,175.8v12.2l15.2-21.1L418.6,175.8z" />
		<path class="st14" d="M418.6,188.1v-12.2l-15.2-8.8L418.6,188.1z" />
		<path class="st15" d="M418.6,173l15.2-8.8l-15.2-6.8V173z" />
		<path class="st13" d="M403.4,164.2l15.2,8.8v-15.6L403.4,164.2z" />
	</g>
	<g id="Layer_2">
		<g id="icon">
			<polygon class="st16" points="46.1,567 52.2,556.4 40.1,535.4 27.9,535.4 		" />
			<polygon class="st17" points="40.1,556.4 46.1,567 34,567 27.9,556.4 		" />
			<polygon class="st16" points="21.9,545.9 34,545.9 21.9,567 15.8,556.4 		" />
		</g>
	</g>
	<path class="st12" d="M346.7,639.3c-1,16.6-13.4,28.1-30.1,28.1s-30.2-13.5-30.2-30.2c0-1-0.1-5,1.5-9.6" />
	<path class="st18" d="M104.1,96.4c0.6-4.3-2.6-6.5-7-8.1l1.4-5.8L95,81.7l-1.4,5.6c-0.9-0.2-1.9-0.4-2.8-0.7l1.4-5.7l-3.5-0.9
	l-1.4,5.8c-0.8-0.2-1.5-0.3-2.2-0.5l0,0l-4.8-1.2l-0.9,3.8c0,0,2.6,0.6,2.5,0.6c1.4,0.4,1.7,1.3,1.6,2l-1.6,6.6
	c0.1,0,0.2,0.1,0.4,0.1c-0.1,0-0.2-0.1-0.4-0.1l-2.3,9.2c-0.2,0.4-0.6,1.1-1.6,0.8c0,0.1-2.6-0.6-2.6-0.6l-1.7,4l4.6,1.1
	c0.9,0.2,1.7,0.4,2.5,0.6l-1.5,5.8l3.5,0.9l1.4-5.8c1,0.3,1.9,0.5,2.8,0.7l-1.4,5.7l3.5,0.9l1.5-5.8c6,1.1,10.5,0.7,12.4-4.7
	c1.5-4.4-0.1-6.9-3.2-8.5C101.9,101,103.7,99.5,104.1,96.4z M96.1,107.7c-1.1,4.4-8.4,2-10.8,1.4l1.9-7.7
	C89.6,101.9,97.2,103.1,96.1,107.7z M97.2,96.4c-1,4-7.1,2-9.1,1.5l1.7-7C91.8,91.3,98.2,92.2,97.2,96.4z" />
	<g id="Band-token_blue-violet-token" transform="translate(0.000000, 0.000000)">
		<circle id="Oval" class="st19" cx="360.6" cy="720.4" r="22" />
		<g id="Logo2-Copy-3" transform="translate(276.000000, 207.000000)">
			<path id="Fill-2" class="st11" d="M92.3,518.3c0,2.3-1.8,4.1-4,4.1h-7.8l8.1-8.2C90.7,514.4,92.3,516.1,92.3,518.3L92.3,518.3z
			 M79.5,513.7v-9.5h9c0.2,0,0.3,0,0.5,0L79.5,513.7z M94.2,508.4c0-1.9-0.9-3.6-2.4-4.7l3.9-3.9l-2.3,0l-3.1,3.1
			c-0.6-0.2-1.2-0.3-1.8-0.3H77.8v15.1l12.8-12.8c1.2,0.7,1.9,2,1.9,3.5c0,2.3-1.8,4.1-4.1,4.1h-0.3l-14.2,14.3h2.3L79,524h9.5
			c3.2,0,5.7-2.6,5.7-5.7c0-2.1-1.1-3.9-2.8-4.9C93,512.3,94.2,510.5,94.2,508.4L94.2,508.4z" />
		</g>
	</g>
</svg>