<?xml version="1.0" encoding="utf-8"?>
<!-- Generator: Adobe Illustrator 23.1.1, SVG Export Plug-In . SVG Version: 6.00 Build 0)  -->
<svg version="1.1" id="Livello_1" xmlns="http://www.w3.org/2000/svg" xmlns:xlink="http://www.w3.org/1999/xlink" x="0px"
	y="0px" viewBox="0 0 813.2 752" style="enable-background:new 0 0 813.2 752;" xml:space="preserve">
	<style type="text/css">
		.st0 {
			fill: #E0E0E0;
		}

		.st1 {
			opacity: 0.1;
			enable-background: new;
		}

		.st2 {
			opacity: 0.17;
			enable-background: new;
		}

		.st3 {
			opacity: 5.000000e-02;
			enable-background: new;
		}

		.st4 {
			fill: #FF0000;
		}

		.st5 {
			fill: #FFFFFF;
		}

		.st6 {
			opacity: 7.000000e-02;
			enable-background: new;
		}

		.st7 {
			fill: #5865F2;
		}

		.st8 {
			fill: #1977F3;
		}

		.st9 {
			fill: #FEFEFE;
		}

		.st10 {
			fill: url(#SVGID_1_);
		}

		.st11 {
			fill: url(#SVGID_2_);
		}

		.st12 {
			fill: #0177B5;
		}

		.st13 {
			fill: #FF004F;
		}

		.st14 {
			fill: #00F7EF;
		}

		.st15 {
			fill: #9146FF;
		}

		.st16 {
			fill: #1DA1F2;
		}

		.st17 {
			fill-rule: evenodd;
			clip-rule: evenodd;
			fill: #181616;
		}

		.st18 {
			fill: #181616;
		}
	</style>
	<title>tweetstorm</title>
	<polygon class="st0" points="559.7,403.7 347.9,352.7 347.9,752 559.7,696.5 " />
	<polygon class="st1" points="559.7,403.7 347.9,352.7 347.9,752 559.7,696.5 " />
	<polygon class="st0" points="136,403.7 347.9,352.7 347.9,752 136,697.7 " />
	<polygon class="st2" points="136,401.9 347.9,350.9 347.9,752 136,697.7 " />
	<polygon class="st0" points="346.1,354.4 457.7,261.7 669.5,316.1 558,405.5 " />
	<polygon class="st0" points="29,318.9 137.8,405.5 349.6,354.4 242,263.5 " />
	<polygon class="st3" points="27.3,317.2 138.6,405.5 350.5,354.4 240.3,261.7 " />
	<g id="g5355">
		<path id="rect4" class="st4" d="M340.6,359.1L340.6,359.1c33.1,0,60,26.9,60,60l0,0c0,33.1-26.9,60-60,60l0,0
		c-33.1,0-60-26.9-60-60l0,0C280.6,386,307.4,359.1,340.6,359.1z" />
		<g id="g4167" transform="matrix(5.9026317,0,0,5.9026317,521.39665,-711.31763)">
			<path id="path4156" class="st5"
				d="M-30.6,186.7c0,0-4.3,0-5.4,0.3c-0.6,0.2-1,0.6-1.2,1.2c-0.3,1.1-0.3,3.3-0.3,3.3
			s0,2.2,0.3,3.3c0.2,0.6,0.6,1,1.2,1.2c1.1,0.3,5.4,0.3,5.4,0.3s4.3,0,5.4-0.3c0.6-0.2,1-0.6,1.2-1.2c0.3-1.1,0.3-3.3,0.3-3.3
			s0-2.2-0.3-3.3c-0.2-0.6-0.6-1-1.2-1.2C-26.3,186.7-30.6,186.7-30.6,186.7z M-32,189.5l3.6,2.1l-3.6,2V189.5L-32,189.5z" />
		</g>
	</g>
	<polygon class="st0" points="136,403.7 136,697.7 347.9,752 350.7,460.3 " />
	<polygon class="st0" points="559.7,696.5 347.9,752 347.9,460.3 559.7,403.7 " />
	<polygon class="st6" points="559.7,696.5 347.9,752 347.9,460.3 559.7,403.7 " />
	<polygon class="st6" points="475.4,598.9 475.4,695.4 559.7,672.1 559.7,575.6 " />
	<polygon class="st1" points="133.2,556.2 251.9,586.2 347.3,508.5 347.3,460.8 135.4,407.6 " />
	<polygon class="st1" points="561.4,556.2 442.7,586.2 347.3,508.5 347.3,460.8 559.2,407.6 " />
	<polygon class="st0" points="136,403.7 27.3,493.5 239.1,546.8 347.9,460.3 " />
	<polygon class="st0" points="559.7,403.7 669.5,493.5 458.8,546.8 347.9,460.3 " />
	<polygon class="st6" points="559.7,403.7 669.5,493.5 458.8,546.8 347.9,460.3 " />
	<g>
		<path class="st7" d="M536.1,82.7c-6.4-2.9-13.3-5.1-20.5-6.4c-0.1,0-0.3,0-0.3,0.2c-0.9,1.6-1.9,3.6-2.5,5.2
		c-7.7-1.2-15.4-1.2-23,0c-0.7-1.7-1.7-3.7-2.6-5.2c-0.1-0.1-0.2-0.2-0.3-0.2c-7.2,1.2-14,3.4-20.5,6.4c-0.1,0-0.1,0.1-0.1,0.1
		c-13,19.5-16.6,38.5-14.9,57.2c0,0.1,0.1,0.2,0.1,0.2c8.6,6.3,16.9,10.2,25.1,12.7c0.1,0,0.3,0,0.4-0.1c1.9-2.6,3.7-5.4,5.1-8.4
		c0.1-0.2,0-0.4-0.2-0.4c-2.7-1-5.3-2.3-7.8-3.7c-0.2-0.1-0.2-0.4,0-0.5c0.5-0.4,1.1-0.8,1.6-1.2c0.1-0.1,0.2-0.1,0.3,0
		c16.5,7.5,34.3,7.5,50.5,0c0.1-0.1,0.2,0,0.3,0c0.5,0.4,1,0.8,1.6,1.2c0.2,0.1,0.2,0.4,0,0.5c-2.5,1.5-5.1,2.7-7.9,3.7
		c-0.2,0.1-0.3,0.3-0.2,0.4c1.5,2.9,3.2,5.7,5.1,8.3c0.1,0.1,0.2,0.2,0.3,0.1c8.2-2.5,16.5-6.4,25.1-12.7c0.1-0.1,0.1-0.1,0.1-0.2
		c2.1-21.7-3.5-40.5-14.9-57.2C536.2,82.8,536.1,82.7,536.1,82.7z M484.5,128.6c-5,0-9-4.5-9-10.1s4-10.1,9-10.1
		c5.1,0,9.1,4.6,9,10.1C493.6,124.1,489.6,128.6,484.5,128.6z M517.9,128.6c-4.9,0-9-4.5-9-10.1s4-10.1,9-10.1c5.1,0,9.1,4.6,9,10.1
		C527,124.1,523,128.6,517.9,128.6z" />
	</g>
	<g id="Layer_x0020_1">
		<path class="st8" d="M689.9,206c0-28.3-22.9-51.2-51.2-51.2c-28.3,0-51.2,22.9-51.2,51.2c0,25.6,18.7,46.7,43.2,50.6v-35.8h-13V206
		h13v-11.3c0-12.8,7.6-19.9,19.3-19.9c5.6,0,11.5,1,11.5,1v12.6H655c-6.4,0-8.3,3.9-8.3,8v9.6h14.2l-2.3,14.8h-11.9v35.8
		C671.1,252.7,689.9,231.5,689.9,206z" />
		<path class="st9" d="M658.6,220.8l2.3-14.8h-14.2v-9.6c0-4,2-8,8.3-8h6.5v-12.6c0,0-5.9-1-11.5-1c-11.7,0-19.3,7.1-19.3,19.9V206
		h-13v14.8h13v35.8c2.6,0.4,5.3,0.6,8,0.6c2.7,0,5.4-0.2,8-0.6v-35.8H658.6z" />
	</g>
	<g>

		<radialGradient id="SVGID_1_" cx="-151.9033" cy="-230.6671" r="45.5"
			gradientTransform="matrix(0 -1.982 -1.8439 0 20.9564 51.1846)" gradientUnits="userSpaceOnUse">
			<stop offset="0" style="stop-color:#FFDD55" />
			<stop offset="0.1" style="stop-color:#FFDD55" />
			<stop offset="0.5" style="stop-color:#FF543E" />
			<stop offset="1" style="stop-color:#C837AB" />
		</radialGradient>
		<path class="st10" d="M467.6,254.3c-19,0-24.6,0-25.6,0.1c-3.9,0.3-6.3,0.9-9,2.3c-2,1-3.6,2.2-5.2,3.8c-2.9,3-4.6,6.7-5.3,11.1
		c-0.3,2.1-0.4,2.6-0.4,13.4c0,3.6,0,8.4,0,14.8c0,19,0,24.5,0.1,25.6c0.3,3.8,0.9,6.2,2.2,8.8c2.4,5,7,8.8,12.4,10.2
		c1.9,0.5,3.9,0.7,6.6,0.9c1.1,0,12.6,0.1,24.1,0.1c11.5,0,23,0,24.1-0.1c3.1-0.1,4.9-0.4,6.8-0.9c5.5-1.4,10-5.1,12.4-10.2
		c1.2-2.5,1.9-5,2.1-8.6c0.1-0.8,0.1-13.3,0.1-25.8c0-12.5,0-25-0.1-25.7c-0.3-3.7-0.9-6.1-2.2-8.7c-1-2.1-2.2-3.7-3.9-5.3
		c-3-2.9-6.7-4.6-11.1-5.3c-2.1-0.3-2.5-0.4-13.4-0.4H467.6z" />

		<radialGradient id="SVGID_2_" cx="277.073" cy="389.1601" r="45.5"
			gradientTransform="matrix(0.1739 0.8687 3.5818 -0.7172 -1035.2267 299.2073)" gradientUnits="userSpaceOnUse">
			<stop offset="0" style="stop-color:#3771C8" />
			<stop offset="0.128" style="stop-color:#3771C8" />
			<stop offset="1" style="stop-color:#6600FF;stop-opacity:0" />
		</radialGradient>
		<path class="st11" d="M467.6,254.3c-19,0-24.6,0-25.6,0.1c-3.9,0.3-6.3,0.9-9,2.3c-2,1-3.6,2.2-5.2,3.8c-2.9,3-4.6,6.7-5.3,11.1
		c-0.3,2.1-0.4,2.6-0.4,13.4c0,3.6,0,8.4,0,14.8c0,19,0,24.5,0.1,25.6c0.3,3.8,0.9,6.2,2.2,8.8c2.4,5,7,8.8,12.4,10.2
		c1.9,0.5,3.9,0.7,6.6,0.9c1.1,0,12.6,0.1,24.1,0.1c11.5,0,23,0,24.1-0.1c3.1-0.1,4.9-0.4,6.8-0.9c5.5-1.4,10-5.1,12.4-10.2
		c1.2-2.5,1.9-5,2.1-8.6c0.1-0.8,0.1-13.3,0.1-25.8c0-12.5,0-25-0.1-25.7c-0.3-3.7-0.9-6.1-2.2-8.7c-1-2.1-2.2-3.7-3.9-5.3
		c-3-2.9-6.7-4.6-11.1-5.3c-2.1-0.3-2.5-0.4-13.4-0.4H467.6z" />
		<path class="st5" d="M467.6,266.2c-9.1,0-10.3,0-13.9,0.2c-3.6,0.2-6,0.7-8.2,1.6c-2.2,0.9-4.1,2-6,3.9c-1.9,1.9-3,3.7-3.9,6
		c-0.8,2.1-1.4,4.6-1.6,8.2c-0.2,3.6-0.2,4.7-0.2,13.9c0,9.1,0,10.3,0.2,13.9c0.2,3.6,0.7,6,1.6,8.2c0.9,2.2,2,4.1,3.9,6
		c1.9,1.9,3.7,3,6,3.9c2.1,0.8,4.6,1.4,8.2,1.6c3.6,0.2,4.7,0.2,13.9,0.2c9.1,0,10.3,0,13.9-0.2c3.6-0.2,6-0.7,8.2-1.6
		c2.2-0.9,4.1-2,5.9-3.9c1.9-1.9,3-3.7,3.9-6c0.8-2.1,1.4-4.6,1.6-8.2c0.2-3.6,0.2-4.7,0.2-13.9c0-9.1,0-10.3-0.2-13.9
		c-0.2-3.6-0.7-6-1.6-8.2c-0.9-2.2-2-4.1-3.9-6c-1.9-1.9-3.7-3-6-3.9c-2.1-0.8-4.6-1.4-8.2-1.6C477.9,266.2,476.7,266.2,467.6,266.2
		L467.6,266.2z M464.6,272.2c0.9,0,1.9,0,3,0c9,0,10,0,13.6,0.2c3.3,0.1,5.1,0.7,6.2,1.2c1.6,0.6,2.7,1.3,3.9,2.5
		c1.2,1.2,1.9,2.3,2.5,3.9c0.5,1.2,1,3,1.2,6.2c0.2,3.5,0.2,4.6,0.2,13.6s0,10-0.2,13.6c-0.1,3.3-0.7,5.1-1.2,6.2
		c-0.6,1.6-1.3,2.7-2.5,3.9c-1.2,1.2-2.3,1.9-3.9,2.5c-1.2,0.5-3,1-6.2,1.2c-3.5,0.2-4.6,0.2-13.6,0.2c-9,0-10,0-13.6-0.2
		c-3.3-0.2-5.1-0.7-6.2-1.2c-1.6-0.6-2.7-1.3-3.9-2.5c-1.2-1.2-1.9-2.3-2.5-3.9c-0.5-1.2-1-3-1.2-6.2c-0.2-3.5-0.2-4.6-0.2-13.6
		s0-10,0.2-13.6c0.1-3.3,0.7-5.1,1.2-6.2c0.6-1.6,1.3-2.7,2.5-3.9c1.2-1.2,2.3-1.9,3.9-2.5c1.2-0.5,3-1,6.2-1.2
		C457.1,272.2,458.3,272.2,464.6,272.2L464.6,272.2z M485.5,277.8c-2.2,0-4,1.8-4,4c0,2.2,1.8,4,4,4c2.2,0,4-1.8,4-4
		C489.6,279.6,487.8,277.8,485.5,277.8L485.5,277.8z M467.6,282.5c-9.5,0-17.3,7.7-17.3,17.3c0,9.5,7.7,17.3,17.3,17.3
		c9.5,0,17.3-7.7,17.3-17.3C484.9,290.2,477.1,282.5,467.6,282.5L467.6,282.5z M467.6,288.6c6.2,0,11.2,5,11.2,11.2
		c0,6.2-5,11.2-11.2,11.2c-6.2,0-11.2-5-11.2-11.2C456.4,293.6,461.4,288.6,467.6,288.6z" />
	</g>
	<g>
		<path class="st12" d="M345.3,41.3h-54.5c-2.6,0-4.7,2.1-4.7,4.6v54.8c0,2.5,2.1,4.6,4.7,4.6h54.5c2.6,0,4.7-2.1,4.7-4.6V45.9
		C350,43.4,347.9,41.3,345.3,41.3z" />
		<path class="st5" d="M295.5,65.3h9.5v30.5h-9.5V65.3z M300.3,50.1c3,0,5.5,2.5,5.5,5.5c0,3-2.5,5.5-5.5,5.5c-3,0-5.5-2.5-5.5-5.5
		C294.8,52.6,297.2,50.1,300.3,50.1C300.3,50.1,300.3,50.1,300.3,50.1 M311,65.3h9.1v4.2h0.1c1.3-2.4,4.4-4.9,9-4.9
		c9.6,0,11.4,6.3,11.4,14.5v16.8h-9.5V81c0-3.5-0.1-8.1-4.9-8.1c-4.9,0-5.7,3.9-5.7,7.8v15.1H311L311,65.3L311,65.3z" />
	</g>
	<g id="Layer_11">
		<g>
			<g>
				<path class="st13" d="M215.3,285.5v14.9c-0.8,0-1.8,0.2-2.7,0.2c-7.2,0-13.9-2.7-19-7v31.7c0,6.4-2.1,12.5-5.8,17.3
				c-5.1,6.9-13.4,11.5-22.9,11.5c-10.2,0-19.2-5.4-24.2-13.4c5.1,4.8,12,7.8,19.5,7.8c9.3,0,17.6-4.5,22.7-11.5
				c3.5-4.8,5.8-10.7,5.8-17.3v-31.8c5.1,4.5,11.7,7,19,7c1,0,1.8,0,2.7-0.2V285c1.4,0.3,2.7,0.5,4.2,0.5
				C214.7,285.5,215.3,285.5,215.3,285.5z" />
				<path class="st13" d="M168.9,296.5V313c-1.1-0.3-2.4-0.5-3.5-0.5c-7,0-12.8,5.9-12.8,13.1c0,1.6,0.3,3,0.8,4.5
				c-3.2-2.4-5.4-6.2-5.4-10.6c0-7.2,5.8-13.1,12.8-13.1c1.3,0,2.4,0.2,3.5,0.5v-10.6c0.3,0,0.6,0,1,0
				C166.5,296.4,167.8,296.4,168.9,296.5z" />
				<path class="st13"
					d="M195.9,273.6c-2.9-2.6-5-6.1-6.1-9.8h3.8c0,0.8,0,1.4,0,2.2C194,268.7,194.8,271.2,195.9,273.6z" />
			</g>
		</g>
		<path d="M210.7,285.2v9.6c-0.8,0.2-1.8,0.2-2.7,0.2c-7.2,0-13.9-2.7-19-7v31.7c0,6.4-2.1,12.5-5.8,17.3c-5.3,7-13.4,11.5-22.7,11.5
		c-7.5,0-14.4-3-19.5-7.8c-2.7-4.5-4.3-9.6-4.3-15.2c0-15.5,12.3-28.2,27.7-28.6v10.6c-1.1-0.3-2.4-0.5-3.5-0.5
		c-7,0-12.8,5.9-12.8,13.1c0,4.3,2.1,8.3,5.4,10.6c1.8,5,6.6,8.6,12,8.6c7,0,12.8-5.9,12.8-13.1v-62.1h11.7c1.1,3.8,3.2,7.2,6.1,9.8
		C198.8,279.4,204.3,283.7,210.7,285.2z" />
		<g>
			<g>
				<g>
					<path class="st14" d="M164.3,290.9v5.4c-15.4,0.5-27.7,13.1-27.7,28.6c0,5.6,1.6,10.7,4.3,15.2c-5.4-5.3-8.8-12.6-8.8-21
					c0-15.8,12.8-28.6,28.5-28.6C161.9,290.6,163.1,290.8,164.3,290.9z" />
					<path class="st14" d="M189.9,263.9h-11.7v61.8c0,7.2-5.8,13.1-12.8,13.1c-5.6,0-10.2-3.5-12-8.6c2.1,1.4,4.6,2.4,7.4,2.4
					c7,0,12.8-5.8,12.8-13v-61.9h15.5v0.3c0,0.6,0,1.3,0.2,1.9C189.2,261.2,189.5,262.6,189.9,263.9z" />
				</g>
			</g>
			<path class="st14"
				d="M210.7,279.2L210.7,279.2v5.8c-6.4-1.3-11.8-5.6-14.9-11.4C199.8,277.3,204.9,279.4,210.7,279.2z" />
		</g>
	</g>
	<g>
		<polygon class="st5"
			points="377.7,229 364.9,241.8 352.1,241.8 340.9,253 340.9,241.8 326.5,241.8 326.5,193.8 377.7,193.8 	" />
		<g>
			<g id="Layer_1-2">
				<path class="st15" d="M323.3,187.4l-16,16V261h19.2v16l16-16h12.8l28.8-28.8v-44.8H323.3z M377.7,229l-12.8,12.8h-12.8L340.9,253
				v-11.2h-14.4v-48h51.2V229z" />
				<rect x="361.7" y="205" class="st15" width="6.4" height="19.2" />
				<rect x="344.1" y="205" class="st15" width="6.4" height="19.2" />
			</g>
		</g>
	</g>
	<g id="Dark_Blue">
		<circle class="st16" cx="713.5" cy="76.4" r="57.6" />
	</g>
	<g id="Logo__x2014__FIXED">
		<path class="st5" d="M702.9,106.8c25.5,0,39.5-21.2,39.5-39.5c0-0.6,0-1.2,0-1.8c2.7-2,5.1-4.4,6.9-7.2c-2.5,1.1-5.2,1.8-8,2.2
		c2.9-1.7,5.1-4.4,6.1-7.7c-2.7,1.6-5.6,2.7-8.8,3.4c-2.5-2.7-6.1-4.4-10.1-4.4c-7.7,0-13.9,6.2-13.9,13.9c0,1.1,0.1,2.2,0.4,3.2
		c-11.5-0.6-21.8-6.1-28.6-14.5c-1.2,2-1.9,4.4-1.9,7c0,4.8,2.4,9.1,6.2,11.5c-2.3-0.1-4.4-0.7-6.3-1.7c0,0.1,0,0.1,0,0.2
		c0,6.7,4.8,12.3,11.1,13.6c-1.2,0.3-2.4,0.5-3.7,0.5c-0.9,0-1.8-0.1-2.6-0.3c1.8,5.5,6.9,9.5,13,9.6c-4.8,3.7-10.7,5.9-17.3,5.9
		c-1.1,0-2.2-0.1-3.3-0.2C687.8,104.4,695.1,106.8,702.9,106.8" />
	</g>
	<g>
		<path class="st5" d="M187.5,143.2c-1.8,20.8-15.8,39.5-39.8,39.5s-38.2-19.5-38.8-40.2c-0.5-21.2,18-39.8,39.8-39.8
		S187.8,121.9,187.5,143.2z" />
		<g>
			<path class="st17" d="M148.3,101.4c-22.2,0-40.2,18.2-40.2,40.8c0,18,11.5,33.2,27.5,38.8c2,0.5,2.8-1,2.8-2s0-4.2,0-7.5
			c-11.2,2.5-13.5-4.8-13.5-4.8c-1.7-4.8-4.5-6-4.5-6c-3.8-2.5,0.2-2.5,0.2-2.5c4,0.2,6.2,4.2,6.2,4.2c3.5,6.2,9.5,4.5,11.7,3.5
			c0.2-2.8,1.5-4.5,2.5-5.5c-9-1-18.2-4.5-18.2-20.2c0-4.5,1.5-8,4.2-11c-0.8-1-2-5.2,0-10.8c0,0,3.5-1,11,4.2c3.2-1,6.8-1.2,10-1.2
			c3.5,0,6.8,0.5,10,1.2c7.8-5.2,11-4.2,11-4.2c2.2,5.5,0.8,9.8,0.5,10.8c2.5,2.8,4.2,6.5,4.2,11c0,15.8-9.5,19-18.5,20
			c1.5,1.2,2.8,3.8,2.8,7.5c0,5.5,0,9.8,0,11.2c0,1,0.7,2.2,2.8,2c16-5.5,27.5-20.8,27.5-38.8C188.5,119.7,170.5,101.4,148.3,101.4z
			" />
			<path class="st18" d="M123.3,159.9c0,0.2-0.5,0.2-0.8,0s-0.5-0.5-0.2-0.5c0-0.2,0.5-0.2,0.8-0.2
			C123.3,159.4,123.3,159.7,123.3,159.9L123.3,159.9z" />
			<path class="st18" d="M125,161.7c-0.2,0.2-0.5,0-0.8-0.2c-0.2-0.2-0.2-0.8,0-0.8c0.2-0.2,0.5,0,0.8,0.2
			C125,161.2,125,161.7,125,161.7L125,161.7z" />
			<path class="st18"
				d="M126.5,164.2c-0.2,0.2-0.8,0-1-0.2s-0.2-0.8,0-1s0.8,0,1,0.2S126.8,163.9,126.5,164.2L126.5,164.2z" />
			<path class="st18" d="M128.8,166.4c-0.2,0.2-0.8,0.2-1-0.2c-0.2-0.2-0.5-0.8-0.2-1s0.8-0.2,1,0.2
			C128.8,165.7,128.8,166.2,128.8,166.4L128.8,166.4z" />
			<path class="st18" d="M131.8,167.7c0,0.2-0.5,0.5-1,0.2s-0.8-0.5-0.8-0.8s0.5-0.5,1-0.2C131.5,166.9,131.8,167.4,131.8,167.7
			L131.8,167.7z" />
			<path class="st18" d="M135,167.9c0,0.2-0.5,0.5-0.8,0.5c-0.5,0-0.8-0.2-1-0.5c0-0.2,0.5-0.5,0.8-0.5
			C134.5,167.4,135,167.7,135,167.9L135,167.9z" />
			<path class="st18"
				d="M138,167.4c0,0.2-0.2,0.8-0.8,0.8s-1,0-1-0.5c0-0.2,0.2-0.8,0.8-0.8S138,167.2,138,167.4L138,167.4z" />
		</g>
	</g>
</svg>